<?xml version="1.0" standalone="no"?>
<!DOCTYPE svg PUBLIC "-//W3C//DTD SVG 20010904//EN"
 "http://www.w3.org/TR/2001/REC-SVG-20010904/DTD/svg10.dtd">
<svg version="1.0" xmlns="http://www.w3.org/2000/svg"
 width="1015.000000pt" height="2701.000000pt" viewBox="0 0 1015.000000 2701.000000"
 preserveAspectRatio="xMidYMid meet">

<g transform="translate(0.000000,2701.000000) scale(0.100000,-0.100000)"
fill="#000000" stroke="none">
<path d="M4085 27000 c3 -5 8 -10 11 -10 2 0 4 5 4 10 0 6 -5 10 -11 10 -5 0
-7 -4 -4 -10z"/>
<path d="M3960 26982 c0 -10 -6 -19 -12 -20 -35 -2 -61 -13 -78 -34 -11 -13
-19 -19 -20 -14 0 4 -11 1 -25 -8 -21 -14 -45 -22 -77 -25 -3 -1 -11 -15 -17
-32 -8 -24 -15 -30 -28 -24 -10 4 -38 9 -63 11 -67 6 -204 36 -211 47 -4 6
-21 5 -43 -3 -37 -12 -38 -18 -9 -51 8 -9 22 -33 32 -52 18 -35 18 -36 -2 -41
-11 -3 -27 -1 -36 3 -9 4 -29 7 -46 7 -23 -1 -29 -5 -27 -18 4 -28 -31 -56
-65 -52 -17 2 -54 -1 -84 -7 -30 -6 -71 -13 -93 -16 -21 -3 -47 -14 -57 -24
-11 -11 -28 -19 -40 -19 -12 0 -17 -4 -14 -11 4 -6 -2 -13 -14 -16 -12 -3 -21
-12 -21 -19 0 -9 -12 -14 -32 -14 -42 0 -78 -10 -78 -21 0 -5 7 -9 15 -9 8 0
15 -4 15 -9 0 -6 -21 -13 -47 -16 -54 -7 -148 -28 -208 -46 -48 -14 -148 -4
-169 17 -25 24 -46 17 -46 -16 0 -16 5 -30 10 -30 20 0 10 -21 -15 -32 -14 -6
-25 -19 -24 -27 3 -34 -2 -41 -26 -41 -30 0 -95 -25 -95 -37 0 -5 -19 -14 -43
-21 -44 -13 -83 -52 -51 -52 29 0 9 -23 -32 -36 -68 -23 -74 -26 -74 -39 0
-13 -108 -125 -121 -125 -11 0 -129 -158 -144 -193 -8 -18 -21 -39 -29 -47 -9
-7 -16 -26 -16 -42 0 -16 -7 -39 -15 -52 -9 -13 -18 -40 -20 -61 -3 -21 -10
-44 -16 -51 -7 -9 2 -14 40 -19 28 -4 55 -4 60 0 6 3 142 8 303 11 161 3 327
7 368 8 41 2 122 3 180 4 58 1 119 3 135 4 17 0 41 1 55 1 14 0 72 -1 130 -2
58 -1 211 -1 340 0 129 1 273 -2 320 -6 117 -11 129 -12 175 -14 50 -2 77 -17
56 -30 -11 -7 -7 -13 18 -25 17 -9 31 -23 31 -31 0 -9 14 -29 30 -47 17 -17
30 -39 30 -49 0 -12 7 -19 20 -19 13 0 18 -5 14 -15 -4 -8 -1 -15 6 -15 19 0
39 -32 40 -62 0 -18 -5 -28 -15 -28 -12 0 -11 -7 6 -36 15 -28 19 -46 14 -75
-4 -22 -11 -39 -15 -39 -5 0 2 -11 15 -24 35 -35 75 -121 80 -173 3 -26 12
-58 21 -72 9 -13 17 -44 18 -68 1 -27 6 -43 14 -43 6 0 12 -7 12 -16 0 -11 -6
-15 -20 -11 -11 3 -23 1 -26 -4 -3 -5 2 -9 11 -9 11 0 14 -6 9 -24 -3 -13 -1
-40 4 -60 9 -32 8 -36 -9 -36 -10 0 -19 -6 -20 -12 -3 -44 5 -104 18 -135 8
-20 12 -47 8 -60 -7 -28 -40 -64 -51 -55 -5 4 -3 0 3 -8 25 -33 54 -123 43
-134 -14 -14 -12 -52 5 -108 8 -27 11 -48 6 -48 -4 0 -6 -13 -3 -29 2 -16 -1
-37 -6 -48 -12 -22 3 -57 21 -47 7 4 2 -3 -11 -15 -23 -23 -24 -35 -1 -109 11
-40 11 -44 -10 -64 -18 -16 -20 -22 -10 -29 11 -6 11 -11 2 -20 -9 -9 -8 -18
8 -41 11 -15 18 -29 15 -29 -3 -1 -11 -2 -18 -3 -19 -2 -26 -60 -13 -99 7 -19
15 -61 19 -92 3 -31 13 -69 20 -84 10 -18 11 -32 5 -44 -7 -11 -6 -24 2 -39
14 -27 22 -270 10 -314 -6 -22 -5 -36 2 -43 8 -8 8 -17 1 -29 -5 -9 -7 -33 -4
-52 9 -49 0 -263 -11 -275 -5 -5 -9 -24 -9 -42 0 -18 -4 -41 -9 -51 -5 -9 -14
-48 -20 -85 -7 -38 -16 -76 -20 -85 -5 -9 -14 -29 -22 -44 -7 -16 -17 -28 -23
-28 -6 0 -5 5 2 12 16 16 15 28 -3 28 -17 0 -19 -8 -16 -62 2 -33 0 -38 -18
-38 -12 0 -21 3 -21 8 0 4 -4 14 -10 22 -7 12 -12 11 -27 -6 -10 -11 -26 -23
-36 -27 -21 -8 -72 16 -85 39 -6 11 -9 1 -7 -35 2 -55 2 -56 -25 -41 -15 8
-17 6 -13 -13 4 -21 4 -21 -10 -4 -13 15 -15 15 -20 2 -4 -8 -13 -12 -21 -9
-19 7 -30 -14 -16 -31 20 -25 6 -37 -17 -15 -12 11 -24 20 -27 20 -3 0 -4 -26
-3 -58 2 -57 2 -58 -22 -54 -13 3 -47 27 -75 53 -43 41 -51 46 -54 29 -3 -16
-7 -18 -30 -9 -15 6 -35 18 -45 27 -16 14 -19 14 -33 0 -21 -21 -36 -89 -22
-105 6 -7 11 -26 13 -41 1 -16 5 -34 9 -41 21 -33 -8 -16 -62 39 -54 54 -83
76 -68 51 10 -16 -6 -41 -26 -41 -15 0 -18 -5 -13 -20 4 -12 2 -20 -5 -20 -6
0 -8 5 -5 10 3 6 4 10 0 10 -3 0 -10 -11 -15 -24 -5 -14 -24 -32 -43 -40 -30
-15 -36 -15 -66 0 -18 9 -48 30 -67 48 -50 46 -102 90 -164 137 -30 23 -70 58
-88 76 -19 19 -57 47 -85 63 -29 16 -87 61 -131 100 -43 38 -82 70 -87 70 -4
0 -25 16 -46 36 -21 19 -50 41 -64 49 -14 8 -42 33 -62 57 -98 117 -154 165
-250 218 -54 30 -103 62 -108 71 -5 10 -23 20 -40 24 -17 4 -28 9 -25 12 10
10 -172 133 -274 185 -41 21 -81 45 -90 52 -23 21 -102 37 -231 48 -109 9
-119 9 -164 -11 -26 -12 -62 -21 -80 -21 -18 0 -45 -7 -61 -14 -25 -14 -29
-13 -44 4 -16 18 -74 21 -101 4 -7 -4 -21 -8 -33 -9 -86 -6 -103 -16 -213
-121 -88 -84 -105 -105 -93 -114 12 -8 11 -10 -7 -10 -24 0 -45 -35 -79 -135
-18 -55 -26 -160 -14 -184 23 -45 48 -165 49 -234 1 -38 5 -50 19 -53 19 -5
71 -136 76 -189 3 -49 51 -113 96 -131 29 -12 45 -27 61 -59 12 -23 30 -48 42
-56 11 -8 27 -22 36 -31 8 -10 25 -18 36 -18 11 0 38 -9 59 -21 l38 -20 14 20
c9 12 25 20 42 19 15 0 50 4 77 10 28 6 69 15 93 20 24 5 49 15 55 21 16 16
64 13 95 -6 34 -22 82 -74 82 -88 0 -6 23 -35 50 -64 28 -29 51 -63 52 -75 0
-11 2 -27 2 -34 1 -7 7 -16 14 -21 7 -4 10 -15 6 -25 -5 -12 10 -33 50 -73 56
-56 69 -83 41 -83 -8 0 -15 -6 -15 -13 0 -7 -9 -23 -20 -35 -26 -28 -25 -41 3
-35 l22 5 -23 -16 c-12 -10 -27 -14 -32 -11 -12 8 -13 3 0 -29 5 -14 6 -26 1
-26 -5 0 -12 10 -15 23 l-7 22 -10 -24 c-8 -19 -12 -21 -24 -11 -12 10 -15 9
-15 -4 0 -9 -4 -16 -10 -16 -5 0 -10 -9 -10 -21 0 -16 -4 -19 -20 -14 -15 5
-20 2 -20 -10 0 -12 -6 -16 -20 -12 -11 3 -20 1 -20 -4 0 -5 4 -9 9 -9 5 0 7
-9 4 -20 -4 -15 -9 -17 -23 -10 -26 14 -33 -2 -25 -50 6 -35 5 -38 -14 -33
-12 3 -17 11 -14 19 3 8 0 14 -6 14 -6 0 -11 -7 -11 -15 0 -8 -3 -15 -7 -15
-14 0 -45 -89 -38 -109 3 -11 1 -22 -4 -26 -7 -3 -9 1 -6 12 3 10 0 8 -6 -5
-15 -27 -33 -24 -37 6 -6 42 -22 10 -22 -44 0 -58 -14 -99 -31 -89 -5 4 -9 -3
-9 -14 0 -12 -4 -21 -10 -21 -5 0 -10 -9 -10 -19 0 -11 -29 -50 -65 -88 -51
-52 -65 -73 -61 -89 4 -13 0 -27 -10 -34 -8 -7 -13 -19 -10 -26 6 -16 -23 -34
-41 -27 -8 3 -13 -5 -13 -21 0 -19 -7 -29 -26 -36 -18 -7 -24 -15 -20 -26 9
-23 -47 -76 -71 -68 -15 6 -16 4 -6 -7 15 -16 17 -39 3 -39 -5 0 -10 6 -10 14
0 8 -5 18 -11 22 -7 4 -9 -1 -7 -12 4 -20 -26 -54 -47 -54 -6 0 -12 -6 -12
-14 0 -23 -25 -76 -35 -76 -6 0 -7 -8 -4 -17 4 -9 1 -20 -6 -24 -8 -5 -3 -12
16 -20 27 -13 28 -13 5 -21 -13 -5 -26 -5 -33 2 -18 18 -38 12 -31 -11 6 -18
5 -19 -13 -10 -30 16 -32 15 -30 -24 1 -19 5 -35 10 -35 5 0 6 -5 3 -11 -5 -7
-11 -5 -18 4 -7 8 -22 18 -33 21 -19 6 -22 3 -22 -31 -1 -38 -25 -110 -36
-105 -3 1 -15 2 -27 2 -16 0 -19 -4 -15 -17 4 -9 1 -20 -6 -25 -10 -6 -10 -10
-2 -15 14 -9 4 -88 -11 -88 -19 -1 -55 -16 -54 -23 4 -27 -3 -41 -17 -35 -15
5 -16 -1 -12 -47 4 -40 11 -57 29 -71 20 -15 21 -19 7 -19 -10 0 -18 5 -18 10
0 6 -5 10 -11 10 -6 0 -9 -7 -5 -15 3 -8 0 -15 -6 -15 -7 0 -3 -7 8 -15 18
-14 18 -14 -8 -15 -20 0 -26 4 -22 14 5 13 2 13 -20 3 -21 -10 -23 -13 -8 -19
9 -4 12 -7 6 -7 -6 -1 -9 -12 -6 -26 2 -14 0 -25 -5 -25 -5 0 -10 -7 -10 -15
0 -8 3 -15 7 -15 4 0 4 -17 1 -37 -4 -23 -12 -38 -20 -38 -8 0 -15 -8 -17 -18
-4 -27 -24 -47 -46 -47 -15 0 -18 -4 -11 -12 5 -7 8 -22 6 -33 -12 -87 -18
-99 -33 -75 -5 8 -12 11 -16 7 -4 -3 -2 -13 5 -21 9 -11 9 -15 -1 -18 -10 -4
-11 -11 -1 -36 9 -25 9 -34 -1 -39 -21 -13 -26 -55 -11 -97 8 -22 12 -43 9
-48 -8 -13 -64 -9 -64 5 0 8 -3 7 -10 -3 -6 -9 -5 -17 2 -21 6 -4 8 -12 4 -18
-4 -6 0 -21 7 -33 8 -13 17 -42 20 -65 5 -39 3 -42 -13 -33 -10 6 -21 10 -24
10 -6 0 -1 -27 10 -54 5 -14 4 -17 -4 -12 -8 5 -12 -4 -12 -28 0 -19 5 -38 10
-41 16 -10 12 -45 -6 -45 -11 0 -14 -6 -9 -22 4 -13 9 -31 12 -41 2 -10 1 -17
-4 -16 -29 5 -43 -3 -43 -25 0 -14 5 -28 10 -31 6 -4 8 -15 5 -26 -4 -10 0
-33 8 -49 9 -16 12 -32 7 -35 -5 -3 -7 -24 -5 -48 1 -23 -4 -54 -11 -69 -20
-39 -18 -88 4 -88 16 -1 16 -1 -1 -11 -9 -5 -17 -15 -17 -20 0 -6 4 -7 10 -4
5 3 10 -1 10 -9 0 -8 -4 -18 -10 -21 -17 -11 -11 -83 10 -117 27 -44 26 -68
-2 -68 -18 0 -20 -2 -8 -10 12 -7 12 -12 2 -22 -17 -17 -15 -39 3 -32 8 4 15
1 15 -5 0 -6 -4 -11 -9 -11 -5 0 -8 -18 -8 -40 1 -22 5 -40 9 -40 4 0 7 -15 6
-33 -1 -18 4 -42 10 -54 10 -18 9 -23 -8 -28 -16 -5 -20 -15 -20 -53 0 -26 7
-57 15 -68 16 -23 11 -36 -11 -27 -8 3 -14 1 -14 -5 0 -5 6 -12 14 -15 9 -4
12 -14 9 -25 -2 -11 0 -23 6 -26 20 -13 13 -38 -9 -31 -11 3 -20 3 -20 0 0
-12 22 -48 42 -69 20 -22 42 -56 35 -56 -2 0 -14 9 -26 19 -45 39 -69 -3 -30
-53 22 -28 17 -55 -7 -35 -10 8 -14 8 -14 0 0 -6 4 -11 8 -11 12 0 36 -74 29
-91 -2 -8 5 -24 16 -37 22 -23 26 -36 31 -87 2 -16 8 -43 14 -58 16 -38 15
-47 -3 -47 -12 0 -13 -4 -5 -19 15 -28 12 -51 -5 -51 -22 0 -19 -9 10 -32 14
-11 25 -29 25 -41 0 -16 -3 -18 -12 -9 -19 19 -28 14 -28 -13 0 -14 4 -25 9
-25 5 0 12 -16 15 -35 3 -19 9 -52 12 -72 l7 -37 -27 29 c-19 21 -24 24 -17 9
6 -12 7 -24 4 -28 -4 -3 4 -17 17 -31 30 -32 18 -44 -19 -22 -39 23 -46 21
-21 -5 20 -22 22 -45 2 -41 -14 3 -3 -99 11 -108 5 -4 6 -15 3 -26 -3 -10 1
-28 9 -39 8 -10 15 -31 15 -46 0 -14 11 -40 25 -56 25 -30 30 -72 8 -72 -7 0
-13 4 -13 9 0 5 -7 12 -16 15 -9 4 -13 2 -8 -5 4 -8 -1 -9 -15 -4 -18 5 -21 2
-21 -24 0 -21 5 -31 15 -31 8 0 15 -9 15 -21 0 -11 -4 -18 -9 -14 -5 3 -12 1
-16 -5 -3 -5 6 -12 21 -16 22 -6 24 -8 10 -16 -17 -9 -23 -48 -7 -48 5 0 11
-11 13 -25 4 -18 0 -26 -14 -31 -13 -4 -16 -10 -10 -17 14 -18 21 -56 12 -62
-4 -3 -19 4 -33 15 -14 11 -28 20 -31 20 -8 0 16 -52 31 -68 7 -7 13 -21 13
-30 0 -9 12 -28 26 -43 24 -25 26 -58 3 -44 -5 4 -14 3 -19 0 -11 -7 12 -35
29 -35 6 0 11 -7 11 -15 0 -9 7 -27 16 -40 21 -31 3 -34 -40 -6 -22 15 -32 16
-41 8 -9 -8 -10 -16 -3 -24 6 -7 8 -19 5 -26 -3 -8 3 -27 13 -42 10 -15 16
-34 13 -41 -3 -8 0 -14 6 -14 5 0 15 -10 22 -21 10 -20 9 -21 -14 -17 -19 4
-23 1 -20 -12 2 -9 -3 -22 -11 -29 -22 -19 -20 -41 9 -84 14 -20 21 -37 15
-37 -6 0 -8 -4 -5 -10 4 -7 -3 -7 -19 0 -34 12 -34 -3 -1 -36 14 -13 24 -30
22 -37 -1 -7 4 -11 11 -9 15 3 15 -8 -2 -30 -10 -14 -15 -15 -26 -5 -7 7 -6 1
3 -13 21 -31 22 -47 2 -30 -8 7 -15 11 -16 9 0 -2 -2 -12 -4 -21 -2 -9 10 -28
26 -42 26 -23 31 -35 28 -63 0 -5 -6 -7 -14 -5 -11 2 -11 -3 -2 -28 6 -16 18
-30 27 -31 9 0 5 -4 -8 -10 -23 -9 -24 -16 -5 -66 3 -7 -2 -13 -11 -13 -16 0
-22 -21 -9 -34 10 -10 13 -36 3 -36 -4 0 -10 7 -14 15 -3 8 -10 15 -16 15 -19
0 -10 -30 20 -72 17 -22 30 -50 30 -60 0 -14 6 -18 23 -16 17 2 23 -3 25 -22
2 -14 1 -22 -3 -18 -4 4 -14 1 -22 -7 -12 -13 -11 -18 6 -37 28 -30 28 -53 0
-38 -11 6 -23 18 -26 26 -3 7 -9 11 -14 8 -14 -8 -39 15 -39 36 0 10 -6 20
-14 23 -19 7 -8 -31 16 -57 21 -23 24 -46 6 -46 -7 -1 -3 -9 10 -20 13 -11 20
-24 17 -30 -5 -8 -16 -4 -33 12 -14 13 -22 17 -18 11 4 -8 1 -13 -8 -13 -23 0
-20 -15 9 -46 13 -14 27 -36 31 -47 4 -12 13 -27 20 -35 8 -7 14 -24 14 -37 0
-24 31 -51 44 -38 3 3 6 1 6 -6 0 -8 -7 -10 -19 -6 -14 4 -23 0 -31 -15 -6
-11 -7 -20 -3 -20 4 0 1 -5 -7 -11 -11 -8 -12 -12 -2 -16 6 -2 12 -11 12 -19
0 -8 4 -14 8 -14 5 0 9 -7 9 -16 0 -11 -8 -15 -27 -12 -22 3 -26 1 -22 -14 2
-10 10 -18 16 -18 8 0 11 -11 8 -30 -2 -17 0 -30 4 -29 34 6 50 -4 66 -43 10
-23 16 -43 14 -45 -7 -7 -46 31 -46 44 0 14 -38 43 -57 43 -9 0 -8 -10 5 -37
9 -21 22 -41 27 -45 6 -4 0 -8 -12 -8 -30 0 -30 -32 -1 -60 17 -15 19 -23 11
-28 -14 -9 -11 -31 8 -77 7 -16 11 -34 10 -39 -2 -9 7 -33 30 -78 5 -11 4 -18
-4 -21 -8 -2 -7 -11 6 -30 10 -15 13 -27 7 -27 -6 0 -8 -5 -5 -10 4 -6 9 -23
11 -38 3 -15 9 -31 14 -36 11 -11 1 -38 -11 -30 -5 3 -6 -2 -3 -10 8 -21 24
-21 24 0 0 8 4 13 9 9 15 -9 9 -46 -7 -40 -10 4 -12 -2 -8 -23 4 -15 2 -42 -4
-61 -7 -25 -6 -38 2 -48 9 -11 9 -16 -1 -22 -10 -7 -9 -15 4 -41 20 -40 13
-80 -15 -80 -24 0 -25 -4 -3 -41 14 -24 15 -33 6 -48 -10 -16 -9 -20 3 -25 14
-5 13 -9 -5 -24 -21 -17 -21 -19 -8 -91 8 -40 12 -100 10 -133 -3 -48 1 -67
17 -95 21 -35 21 -51 1 -38 -6 3 -9 11 -6 16 4 5 2 9 -3 9 -5 0 -14 10 -20 22
l-11 23 0 -22 c-1 -13 3 -23 7 -23 5 0 9 -6 10 -12 2 -25 8 -48 15 -54 4 -4 7
-16 7 -26 0 -10 9 -37 21 -60 17 -33 19 -46 10 -65 -14 -30 -14 -73 -1 -73 19
0 23 -31 6 -43 -14 -10 -14 -17 -5 -47 7 -19 16 -43 20 -52 13 -25 11 -34 -3
-20 -7 7 -16 12 -20 12 -12 0 -10 -34 4 -48 9 -9 9 -18 0 -36 -6 -14 -8 -41
-5 -62 4 -25 3 -35 -4 -31 -8 5 -8 -5 -2 -31 5 -20 9 -40 9 -44 0 -5 10 -18
21 -29 17 -17 19 -23 8 -30 -10 -6 -22 1 -41 24 -36 44 -43 30 -13 -27 27 -50
32 -82 14 -88 -16 -5 -23 -91 -10 -117 10 -18 9 -22 -5 -28 -10 -4 -19 -2 -22
5 -2 7 -7 12 -12 12 -4 0 -1 -19 7 -41 15 -46 14 -49 -15 -52 -20 -1 -20 -1
-1 -28 10 -15 19 -32 19 -38 0 -5 15 -24 32 -42 20 -19 26 -29 15 -25 -15 5
-16 3 -5 -17 7 -12 13 -28 14 -36 2 -7 14 -26 28 -40 28 -29 36 -52 11 -31
-12 10 -16 9 -21 -4 -5 -14 -7 -14 -22 0 -12 13 -13 17 -2 24 11 7 10 11 -3
24 -20 20 -31 21 -23 0 3 -8 2 -12 -4 -9 -5 3 -16 -8 -25 -26 -15 -29 -15 -32
2 -52 9 -12 24 -28 32 -34 12 -11 12 -16 -5 -34 -18 -20 -18 -22 -1 -34 9 -6
17 -23 17 -36 -1 -23 -1 -23 -17 6 l-16 29 -9 -23 c-4 -13 -5 -33 -1 -45 4
-12 6 -29 4 -38 -1 -9 4 -18 11 -21 7 -2 3 -2 -9 0 -13 2 -23 1 -23 -1 0 -2
29 -33 65 -69 66 -67 76 -81 50 -71 -8 4 -15 12 -15 18 0 11 -40 36 -56 36 -3
0 4 -14 16 -31 l22 -30 -26 -37 c-18 -26 -22 -38 -14 -41 17 -5 28 -22 28 -43
0 -14 -7 -16 -37 -11 l-36 6 29 -29 c41 -41 82 -116 53 -98 -8 4 -8 0 0 -15 7
-12 9 -27 5 -33 -4 -6 -3 -8 4 -4 6 3 14 -3 17 -15 9 -28 1 -34 -19 -13 -9 9
-20 13 -24 10 -3 -4 -1 -11 6 -15 8 -5 12 -24 11 -49 -3 -44 7 -65 20 -43 5 7
14 11 20 7 13 -8 -28 -55 -44 -50 -5 2 -24 5 -42 8 -29 4 -31 3 -20 -15 6 -10
17 -19 24 -19 7 0 13 -11 13 -25 0 -38 30 -27 36 13 4 24 10 22 21 -9 10 -26
10 -29 -2 -19 -12 10 -16 9 -21 -4 -4 -10 6 -29 26 -52 33 -38 34 -59 0 -29
-11 10 -23 15 -27 12 -3 -4 -1 -7 5 -7 7 0 12 -5 12 -11 0 -6 -8 -8 -18 -5
-25 8 -47 -62 -26 -85 8 -9 10 -19 4 -25 -13 -13 2 -33 27 -37 27 -4 70 -33
61 -42 -4 -4 -21 0 -39 9 -35 17 -59 21 -59 8 0 -9 60 -57 72 -57 18 0 18 -15
0 -15 -25 0 -28 -10 -10 -28 9 -9 8 -12 -6 -12 -9 0 -14 -4 -11 -10 11 -18 35
-11 35 10 0 22 16 26 40 10 13 -8 11 -11 -7 -16 -19 -5 -21 -9 -12 -26 14 -27
-12 -65 -48 -71 -27 -4 -27 -4 -5 -12 12 -4 22 -11 22 -16 0 -5 8 -9 18 -9 23
0 48 -48 32 -64 -7 -7 -10 -6 -10 3 0 7 -5 9 -11 5 -16 -9 17 -28 37 -20 22 8
17 -12 -10 -39 -15 -15 -31 -22 -40 -19 -26 10 -18 -12 10 -26 21 -12 22 -15
9 -20 -14 -5 -14 -8 3 -26 16 -17 17 -23 6 -38 -7 -10 -10 -25 -7 -34 5 -11 3
-13 -7 -7 -9 5 -11 4 -6 -3 4 -7 14 -12 22 -12 21 0 17 -17 -8 -34 -21 -15
-21 -16 -3 -16 29 -1 90 -36 77 -44 -7 -4 -22 -2 -34 4 -22 11 -21 10 1 -8
l25 -20 -25 -4 -24 -4 28 -12 c37 -16 53 -32 52 -57 0 -13 -8 -21 -22 -23 -25
-4 -28 -14 -13 -43 10 -17 7 -19 -27 -19 -35 -1 -36 -2 -20 -15 11 -7 25 -11
31 -9 7 3 19 -2 26 -10 10 -13 9 -17 -4 -22 -14 -5 -13 -10 9 -30 29 -27 33
-54 8 -54 -13 0 -14 -3 -5 -12 7 -7 28 -11 47 -9 25 2 35 -2 35 -12 0 -9 -10
-14 -28 -13 -29 2 -65 -21 -56 -35 3 -5 16 -6 28 -3 15 3 25 0 29 -9 4 -10 14
-13 34 -9 25 5 27 4 14 -11 -7 -9 -17 -14 -22 -12 -13 9 -49 -33 -43 -50 4 -9
1 -15 -7 -16 -8 0 11 -8 41 -18 30 -10 54 -22 53 -27 -1 -5 5 -16 13 -26 10
-11 12 -18 5 -23 -8 -4 -6 -11 4 -21 21 -22 19 -31 -12 -42 -18 -7 -22 -11
-10 -11 9 -1 17 -8 17 -16 0 -8 4 -15 9 -15 5 0 12 -11 15 -25 3 -13 15 -29
26 -35 11 -6 20 -19 20 -30 0 -10 15 -31 34 -47 18 -15 36 -40 40 -56 4 -16
13 -27 23 -27 22 0 83 -22 83 -31 0 -3 -18 -9 -40 -13 -46 -7 -48 -13 -20 -46
12 -13 18 -30 15 -38 -6 -17 18 -42 40 -42 9 0 13 -4 10 -10 -3 -5 -15 -10
-27 -10 -17 0 -14 -5 18 -35 92 -83 94 -85 88 -125 -5 -32 -2 -41 22 -64 24
-22 27 -28 14 -36 -13 -9 -13 -11 -1 -19 8 -5 11 -16 8 -25 -4 -10 -1 -16 8
-16 10 0 15 -10 15 -26 0 -16 11 -37 28 -53 23 -22 24 -26 10 -29 -27 -5 -22
-25 21 -89 38 -58 38 -58 20 -82 -20 -25 -25 -66 -10 -75 5 -3 12 -18 16 -33
3 -16 14 -36 23 -46 10 -11 12 -21 7 -25 -13 -9 -15 -82 -2 -82 5 0 7 -13 4
-30 -4 -16 -3 -30 1 -30 4 0 22 -23 41 -50 19 -28 37 -50 41 -50 10 0 9 -74
-1 -86 -5 -6 -3 -18 6 -30 8 -10 15 -26 15 -35 0 -9 8 -27 19 -40 10 -13 22
-35 26 -49 4 -14 18 -42 32 -63 15 -20 23 -40 20 -43 -3 -4 1 -13 9 -21 11
-12 12 -18 3 -29 -8 -10 -7 -17 5 -29 18 -18 22 -40 5 -30 -7 5 -7 1 -1 -11 6
-11 18 -35 26 -54 9 -19 20 -42 25 -50 5 -8 13 -28 18 -45 6 -16 14 -39 18
-50 5 -15 4 -16 -3 -6 -8 11 -11 9 -17 -8 -4 -14 1 -33 14 -54 47 -75 80 -157
86 -214 2 -24 13 -56 25 -72 21 -30 21 -30 0 -41 -19 -10 -19 -11 9 -38 34
-32 52 -76 27 -66 -9 3 -16 1 -16 -6 0 -6 -5 -8 -12 -3 -7 4 -5 -5 5 -20 10
-15 15 -33 11 -39 -4 -7 -3 -8 4 -4 8 5 12 0 12 -13 0 -12 -4 -21 -10 -21 -12
0 -2 -27 23 -62 11 -14 16 -31 13 -37 -4 -6 -3 -11 3 -11 6 0 15 -9 20 -19 9
-16 8 -18 -9 -14 -11 3 -20 0 -20 -6 0 -12 21 -52 31 -61 3 -3 9 -21 13 -40 3
-19 17 -47 31 -62 14 -15 25 -38 25 -52 0 -14 5 -28 11 -31 6 -4 8 -13 5 -20
-2 -7 5 -27 16 -46 11 -18 22 -53 24 -78 6 -80 9 -92 23 -101 10 -6 14 -22 13
-49 -2 -23 1 -41 6 -41 16 0 33 -50 23 -69 -5 -9 -6 -23 -1 -31 4 -7 6 -19 3
-27 -3 -7 0 -13 7 -13 7 0 10 -6 7 -12 -3 -8 5 -14 20 -15 14 0 30 -6 36 -12
8 -8 0 -11 -28 -11 -30 0 -36 -3 -27 -12 14 -14 16 -42 2 -33 -6 4 -10 -6 -10
-24 0 -16 5 -33 10 -36 6 -3 10 -1 10 5 0 6 5 8 11 4 7 -4 10 -27 7 -60 -3
-31 0 -55 5 -57 6 -2 11 -21 12 -43 5 -89 5 -90 15 -74 9 13 11 13 20 0 5 -8
10 -32 10 -52 0 -20 5 -40 10 -43 14 -9 12 -62 -2 -68 -10 -4 -10 -6 0 -6 6
-1 12 -8 12 -16 0 -8 7 -15 15 -15 20 0 19 -9 -2 -33 -14 -15 -15 -21 -5 -24
24 -9 44 -36 39 -54 -3 -13 0 -16 12 -12 9 3 5 -4 -9 -16 -14 -11 -23 -21 -20
-22 3 0 14 -2 25 -4 11 -2 21 -9 23 -15 2 -5 8 -7 14 -4 5 3 3 -7 -6 -24 -15
-28 -14 -31 7 -46 12 -9 16 -15 9 -13 -22 4 -39 -30 -23 -45 11 -11 13 -10 8
3 -3 10 1 16 10 16 9 0 18 -9 21 -19 2 -10 8 -18 13 -18 5 0 9 -16 9 -36 0
-19 5 -44 10 -54 7 -13 7 -21 0 -25 -20 -12 -10 -36 19 -46 30 -11 43 -29 45
-63 1 -10 10 -24 21 -30 31 -17 45 -33 45 -50 0 -8 9 -21 21 -29 13 -9 16 -17
10 -22 -12 -7 -15 -55 -3 -55 15 0 92 -78 92 -93 0 -10 -4 -17 -9 -17 -5 0
-12 -11 -15 -25 -4 -14 -11 -23 -16 -20 -5 3 -7 -1 -4 -9 3 -9 -2 -17 -15 -21
-14 -4 -23 -20 -30 -55 -6 -26 -19 -63 -31 -82 -11 -18 -24 -43 -29 -55 -6
-12 -21 -39 -34 -60 -29 -46 -70 -183 -55 -183 6 0 6 -6 -2 -15 -16 -20 -25
-326 -9 -335 7 -5 4 -13 -8 -25 -10 -11 -19 -36 -20 -59 -3 -48 -11 -140 -14
-152 -1 -5 0 -16 4 -24 3 -8 8 -46 12 -85 10 -107 12 -126 23 -149 5 -12 17
-48 28 -81 12 -40 29 -70 51 -90 18 -17 33 -37 33 -44 0 -9 7 -11 22 -8 12 3
31 1 42 -6 12 -6 23 -12 26 -12 46 -9 70 -19 70 -31 0 -9 4 -13 9 -10 5 3 14
-8 21 -24 16 -39 39 -58 49 -41 6 8 12 3 21 -19 7 -17 10 -33 7 -37 -4 -3 -2
-15 4 -25 8 -14 8 -23 0 -31 -17 -17 -13 -27 9 -27 12 0 20 -7 20 -16 0 -11 6
-15 19 -11 14 3 18 1 14 -9 -3 -10 3 -14 20 -14 15 0 32 -9 41 -21 10 -15 27
-23 53 -24 21 -1 61 -6 88 -9 47 -7 49 -6 25 8 -32 19 -19 24 63 27 9 0 17 4
17 8 0 4 14 6 30 3 17 -2 30 -8 30 -13 0 -5 8 -9 18 -9 16 0 72 -59 72 -77 1
-13 60 -67 66 -60 4 3 16 1 28 -6 11 -6 30 -12 41 -13 24 -2 47 14 39 27 -7
11 64 79 82 79 7 0 18 9 24 20 6 11 15 18 21 15 5 -4 9 1 9 9 0 9 9 16 20 16
22 0 26 -20 8 -38 -20 -20 -1 -24 29 -6 15 10 30 21 33 25 12 15 47 18 70 6
27 -14 96 -11 106 4 3 5 15 9 28 9 12 0 27 5 34 12 9 9 15 9 24 0 7 -7 20 -12
30 -12 10 0 18 -5 18 -11 0 -6 7 -9 15 -5 8 3 15 1 15 -4 0 -6 -10 -10 -22
-11 -19 0 -17 -3 11 -16 24 -10 31 -17 22 -22 -8 -6 6 -18 43 -40 31 -17 61
-31 67 -31 8 0 8 -4 1 -13 -9 -10 -6 -17 8 -30 11 -9 25 -17 30 -17 14 0 12
-17 -2 -24 -10 -3 -8 -9 5 -19 9 -8 17 -19 17 -25 0 -6 14 -16 30 -24 30 -13
41 -38 18 -38 -7 0 -5 -5 5 -11 10 -6 24 -8 31 -6 7 3 19 1 27 -4 11 -7 10 -9
-6 -9 -28 0 50 -41 88 -46 33 -4 50 -14 24 -14 -24 0 -21 -17 5 -31 35 -19 49
-41 35 -58 -10 -12 -6 -13 23 -9 20 4 48 0 65 -7 17 -7 24 -14 17 -14 -7 -1
-10 -6 -7 -11 4 -6 1 -17 -5 -25 -10 -13 -8 -15 13 -15 14 0 32 -7 41 -15 8
-8 30 -15 48 -15 25 0 42 -8 62 -29 24 -25 26 -32 16 -51 -6 -12 -10 -23 -8
-24 44 -29 62 -36 78 -31 15 5 18 2 14 -8 -4 -11 5 -16 33 -20 80 -12 103 -20
108 -37 3 -10 11 -17 18 -17 35 3 118 -16 114 -27 -3 -8 19 -11 72 -12 191 -4
271 -10 283 -22 14 -14 58 -16 58 -2 0 6 7 10 15 10 17 0 19 -14 6 -38 -6 -12
-4 -24 6 -37 15 -20 15 -19 8 3 -4 16 -2 22 9 22 8 0 21 3 30 6 11 4 16 1 16
-11 0 -13 3 -15 13 -7 14 12 53 -11 43 -26 -3 -6 7 -24 23 -41 16 -17 32 -46
35 -66 4 -19 12 -36 19 -36 36 -4 71 1 77 12 5 8 26 10 60 7 49 -5 57 -10 101
-59 27 -30 49 -58 49 -64 1 -5 23 -32 50 -60 27 -27 52 -63 56 -79 5 -21 8
-25 15 -15 7 11 9 9 9 -8 0 -37 11 -53 46 -68 18 -7 43 -25 55 -39 26 -30 57
-33 85 -8 10 9 27 18 37 20 17 3 17 1 3 -27 -36 -69 -3 -69 78 1 33 29 57 48
53 41 -8 -13 8 -27 22 -19 5 4 5 18 -2 35 -9 24 -7 33 11 56 l21 27 26 -27
c13 -15 39 -38 57 -51 18 -13 37 -38 43 -56 15 -47 55 -55 86 -17 18 22 32 29
60 29 27 0 42 7 61 29 14 15 23 34 19 40 -10 15 -3 93 9 105 6 6 10 36 10 68
0 40 4 58 13 58 8 0 8 3 -2 9 -18 12 -6 42 14 35 10 -4 15 0 15 10 0 15 12 21
33 17 5 -1 6 3 2 9 -4 6 1 22 10 36 9 14 14 33 10 42 -3 8 -2 18 2 21 12 9 63
79 63 86 0 24 37 76 63 90 18 9 50 27 72 41 22 14 48 27 58 31 9 3 17 15 17
27 0 11 7 29 14 39 16 21 10 57 -10 57 -38 0 0 74 53 101 44 23 74 19 52 -7
-18 -21 5 -17 35 7 15 12 34 39 43 60 8 22 19 39 24 39 5 0 9 7 9 15 0 8 8 15
17 15 9 0 34 8 54 17 38 18 50 33 27 33 -7 0 3 11 22 25 39 29 62 31 84 10 14
-14 20 -11 65 36 33 35 55 50 65 46 9 -4 16 -2 16 4 0 5 -6 12 -13 15 -22 8
-14 51 16 86 15 18 27 38 27 45 0 7 14 22 30 35 17 12 30 28 30 36 0 9 6 12
15 8 10 -3 18 1 22 12 17 52 29 70 55 80 15 5 31 19 34 29 15 44 29 73 36 73
5 0 8 7 8 15 0 8 16 30 35 50 28 28 34 40 29 60 -3 14 -2 25 3 25 11 0 33 66
33 97 0 29 58 89 104 108 21 9 36 18 33 21 -3 3 -24 -4 -47 -16 -23 -12 -46
-20 -52 -18 -11 4 50 68 65 68 4 0 5 11 1 25 -5 20 -2 25 20 31 31 7 33 15 6
32 -23 14 -16 42 11 42 20 0 24 10 10 25 -5 6 -12 20 -16 32 -6 21 -4 22 23
17 24 -5 32 -2 41 15 13 23 2 28 -17 9 -7 -7 -12 -10 -13 -8 -7 61 -7 90 1 90
6 0 10 9 10 21 0 11 5 17 10 14 16 -10 12 42 -5 59 -15 14 -10 50 5 41 12 -8
50 44 51 69 0 20 0 20 9 -1 13 -33 16 -28 12 17 -4 38 -3 40 22 38 14 -1 26
-5 26 -8 0 -3 9 -6 20 -6 11 0 20 4 20 8 0 4 9 8 20 8 11 0 20 7 20 15 0 8 5
15 10 15 6 0 10 -7 10 -15 0 -11 11 -15 43 -15 24 0 47 -3 50 -7 12 -12 101
-11 116 1 10 7 13 7 8 0 -3 -6 5 -17 19 -25 22 -11 27 -11 34 1 6 8 10 22 10
31 0 22 37 31 54 13 8 -8 22 -14 31 -14 10 0 13 -5 9 -11 -5 -9 4 -10 32 -4
21 4 43 10 49 13 5 4 17 7 25 8 8 1 26 2 39 3 21 1 22 3 10 18 -13 15 -12 15
9 4 12 -6 22 -18 22 -25 0 -20 38 -8 51 15 7 14 16 18 33 13 13 -3 27 -1 30 5
4 6 18 11 32 11 36 0 74 28 74 56 0 34 15 37 29 6 11 -23 14 -25 22 -9 6 11 6
23 0 36 -8 14 -7 20 4 25 8 3 15 17 15 31 0 29 16 32 42 8 11 -10 18 -13 17
-8 -1 6 1 18 5 27 21 48 -30 467 -65 530 -5 10 -9 24 -9 31 0 7 -13 29 -30 47
-37 41 -37 50 -5 50 25 0 25 0 9 31 -19 38 -9 48 46 50 21 1 27 3 15 6 -11 3
-25 12 -32 20 -11 14 -14 14 -28 -1 -29 -28 -53 -37 -62 -24 -11 18 -33 96
-39 143 -5 39 -5 40 12 17 11 -15 26 -22 48 -21 17 0 26 3 20 5 -7 3 -9 14 -7
25 4 16 12 20 29 16 20 -3 22 -2 13 10 -9 10 -8 18 6 33 10 11 14 20 9 20 -5
0 -15 13 -21 30 -10 27 -10 29 7 20 14 -8 19 -5 23 12 3 12 2 29 -3 38 -5 9
-5 22 1 31 5 7 9 10 9 5 0 -5 6 -3 14 3 11 9 15 7 19 -8 3 -11 0 -22 -7 -25
-6 -2 -6 -5 -1 -5 6 0 18 6 28 13 14 11 16 18 7 41 -6 16 -16 25 -24 22 -14
-5 -36 10 -36 25 0 18 49 7 63 -14 12 -18 16 -19 16 -7 1 9 -6 22 -14 29 -20
17 -20 61 0 54 10 -4 15 0 15 15 0 12 6 21 15 21 17 0 21 45 5 55 -16 10 -12
45 5 45 10 0 15 10 15 30 0 31 16 41 26 15 4 -8 10 -12 16 -9 5 3 7 12 4 19
-3 8 0 16 7 18 9 3 9 8 1 18 -6 8 -11 24 -12 37 -1 19 2 21 20 11 16 -9 19 -8
12 3 -5 7 -9 28 -9 45 0 28 4 33 23 33 27 0 29 25 5 60 -12 17 -13 25 -5 28 7
2 12 14 12 26 0 12 6 31 14 41 10 14 11 26 4 45 -6 14 -11 35 -12 46 -1 12 -8
30 -16 40 -8 10 -10 15 -3 11 6 -4 18 -4 27 -1 12 5 13 10 5 26 -7 12 -7 18
-1 14 6 -3 14 7 20 22 9 27 8 28 -21 27 -17 0 -32 6 -34 13 -3 7 4 12 17 12
15 0 20 5 17 14 -3 7 -1 18 5 24 6 6 13 25 15 42 2 24 -2 33 -20 40 -12 5 -16
10 -9 11 6 1 17 3 22 4 6 1 14 3 19 4 14 2 29 53 30 106 2 64 17 122 36 129
17 6 20 51 5 61 -6 4 -7 11 -4 17 10 15 12 108 3 114 -4 2 4 32 17 67 13 34
23 71 22 82 -2 12 2 19 10 18 15 -4 15 -2 -1 37 -16 37 -7 108 16 124 18 14
16 45 -6 76 -17 24 -17 26 9 47 24 19 26 26 20 62 -3 23 -2 41 3 41 12 0 21
53 11 64 -14 14 1 69 24 89 11 10 15 16 9 12 -15 -7 -18 11 -3 20 21 13 8 24
-22 18 -22 -4 -29 -3 -24 5 4 7 16 12 27 12 10 0 19 4 19 10 0 5 3 9 8 9 21
-4 24 2 8 14 -17 13 -17 15 -2 45 9 18 13 32 9 32 -4 0 -2 5 5 12 7 7 12 20
12 30 0 21 17 53 45 86 17 20 17 24 5 33 -13 8 -10 13 12 34 30 26 39 75 14
75 -13 0 -13 4 -1 26 9 19 11 34 4 51 -7 19 -5 31 11 53 16 23 21 48 24 127 2
54 9 117 15 141 7 23 12 61 11 85 0 23 1 65 3 92 2 28 -3 67 -11 88 -11 28
-12 41 -3 51 7 8 9 25 5 40 -4 17 -2 26 6 26 6 0 8 5 5 10 -4 6 -8 36 -10 67
-2 31 -7 59 -12 62 -13 9 -13 60 1 55 15 -6 13 45 -4 76 -21 37 -23 75 -5 90
8 7 15 24 15 37 0 18 4 23 14 20 11 -5 26 11 26 27 0 1 -15 0 -33 -2 -33 -4
-34 -3 -35 37 -1 22 3 53 9 68 7 19 7 29 0 31 -6 2 -11 22 -11 45 0 23 -5 58
-10 77 -6 19 -11 56 -11 83 0 32 -4 45 -11 41 -8 -5 -9 2 -3 22 15 56 14 123
-1 138 -17 18 -18 33 -1 39 9 4 9 6 0 6 -15 1 -17 47 -3 56 6 3 10 15 10 25 0
11 6 25 13 32 8 7 12 20 9 30 -2 10 7 42 21 71 34 71 47 106 46 120 0 7 -4 3
-8 -8 -8 -19 -8 -19 -16 5 -5 14 -4 25 2 27 6 2 8 23 5 48 -4 36 -1 48 16 62
11 10 28 41 38 68 9 28 22 56 27 63 6 7 11 43 12 81 1 37 4 72 8 78 4 6 2 24
-4 40 -9 24 -7 30 13 48 13 11 22 28 20 37 -2 9 6 22 17 28 35 18 18 56 -22
46 -6 -1 -9 -1 -4 1 4 3 7 11 7 18 0 7 6 16 13 19 9 5 9 7 0 12 -9 4 -10 11
-3 24 6 10 8 34 5 53 -4 24 -1 38 11 48 9 7 20 23 25 36 5 15 14 21 24 17 10
-4 18 2 24 19 13 33 42 67 58 67 6 0 15 5 18 10 4 7 -2 9 -18 5 -30 -8 -43 8
-22 25 14 11 13 15 -5 32 -12 11 -18 23 -15 26 4 4 11 -1 16 -11 6 -9 16 -17
23 -17 14 0 29 34 27 58 -1 6 4 12 11 12 7 1 -2 7 -21 15 -39 17 -44 18 -36 6
8 -15 -15 -25 -28 -12 -8 8 -8 11 1 11 7 0 12 9 12 20 0 11 4 20 10 20 5 0 7
6 4 13 -3 8 6 18 21 25 14 6 25 18 25 27 0 8 9 20 20 27 11 7 20 18 20 25 0
18 -34 50 -47 46 -6 -2 -21 6 -32 18 -25 27 -29 79 -6 79 8 0 15 7 15 15 0 9
8 19 18 23 21 9 27 32 8 32 -16 0 -32 50 -19 59 28 20 49 124 26 127 -24 3
-25 4 -15 17 6 7 7 18 3 26 -6 10 -12 9 -25 -4 -9 -9 -23 -14 -31 -11 -18 7
-9 36 12 36 7 0 13 8 11 17 -2 11 6 19 22 23 19 4 26 13 28 39 3 25 0 31 -10
25 -8 -5 -6 3 5 19 10 15 14 27 10 26 -26 -4 -35 3 -30 24 9 33 -6 53 -25 34
-12 -12 -18 -13 -38 -2 l-24 13 32 16 c31 16 46 41 18 30 -28 -11 -26 15 3 49
24 26 28 36 18 46 -9 10 -8 16 9 29 24 20 21 42 -7 42 -21 0 -26 15 -8 26 6 3
9 15 6 25 -3 10 0 20 7 22 6 2 8 8 4 12 -4 4 -14 2 -23 -5 -9 -8 -15 -8 -15
-2 0 6 14 22 31 35 24 19 30 29 24 46 -3 11 -13 21 -21 21 -8 0 -14 4 -14 9 0
5 -16 12 -36 16 -27 5 -34 9 -25 18 6 6 11 18 11 27 0 9 11 23 25 30 14 7 25
17 25 22 0 12 -24 10 -37 -3 -17 -17 -50 -1 -64 30 -7 15 -22 32 -33 37 -14 6
-21 19 -21 36 -1 14 -6 32 -13 40 -6 8 -8 18 -4 22 4 4 -10 6 -30 5 -20 -2
-41 1 -45 5 -4 5 -3 7 2 3 15 -8 31 4 39 31 9 27 -9 30 -36 5 -13 -12 -22 -13
-29 -6 -8 8 -8 13 0 17 6 4 11 13 11 19 0 8 -3 8 -9 -2 -18 -28 -19 7 -1 47
19 42 16 53 -9 30 -11 -11 -12 -8 -7 17 4 17 9 38 13 49 3 12 1 16 -6 12 -16
-10 -14 6 4 31 18 25 3 42 -20 23 -19 -16 -19 -1 -1 25 7 11 16 32 19 47 6 22
4 25 -13 21 -11 -3 -17 -9 -14 -14 3 -5 -2 -9 -10 -9 -18 0 -20 13 -7 38 14
29 22 72 12 72 -5 0 -11 -10 -14 -22 -4 -12 -8 -20 -11 -18 -5 6 8 77 19 104
7 16 5 17 -16 11 -13 -4 -21 -4 -17 0 4 5 3 14 -2 20 -7 8 -7 27 -2 53 8 34 7
40 -6 35 -12 -5 -14 0 -9 29 3 20 15 55 26 79 12 23 21 49 21 56 0 20 -18 16
-32 -7 -18 -28 -29 -25 -18 5 5 14 9 29 8 33 -1 4 2 22 6 41 6 24 4 36 -5 41
-9 6 -10 12 -2 22 6 7 13 24 16 38 4 14 18 37 32 52 14 15 25 32 25 37 0 6 11
20 25 33 18 17 22 27 15 38 -8 12 -10 10 -10 -9 0 -23 -1 -24 -20 -6 -11 10
-17 22 -13 28 3 6 1 7 -6 3 -6 -4 -9 -11 -6 -16 3 -4 -3 -9 -13 -12 -10 -2
-31 10 -50 29 -19 20 -27 33 -18 33 20 0 28 28 15 51 -9 17 -5 25 25 53 20 18
36 37 36 43 0 6 6 16 14 23 18 14 10 40 -13 41 -13 0 -13 2 -1 6 22 8 80 74
80 92 1 18 25 53 32 46 2 -3 5 2 5 10 0 21 -3 19 -40 -15 -18 -17 -39 -29 -47
-27 -8 1 -24 -5 -34 -15 -22 -20 -46 -24 -46 -8 0 6 5 10 10 10 6 0 10 7 10
15 0 9 -7 15 -16 13 -10 -2 -19 3 -21 10 -3 6 2 12 10 12 7 0 22 9 32 20 18
20 18 20 -15 14 l-33 -7 18 34 c10 19 21 41 25 49 4 8 17 17 29 20 12 3 22 10
21 15 -2 21 30 16 39 -7 7 -17 10 -19 10 -5 1 11 9 17 25 17 20 0 23 4 18 23
-5 18 -7 19 -10 5 -2 -10 -7 -18 -12 -18 -5 0 -14 8 -19 18 -28 47 -29 48 -46
27 -9 -11 -14 -15 -12 -10 6 13 -53 17 -68 5 -7 -6 -10 -1 -9 17 0 17 9 30 21
36 17 7 19 14 13 42 -6 27 -5 32 7 28 8 -3 13 -14 10 -24 -3 -12 0 -19 9 -19
10 0 14 12 12 45 -1 34 4 49 18 61 13 11 15 17 7 20 -7 3 -13 9 -13 13 0 10
46 31 70 31 13 0 17 5 13 21 -4 14 -11 18 -22 14 -13 -5 -14 -4 -3 6 18 19 15
29 -8 29 -17 0 -19 3 -11 17 5 10 5 26 0 41 -8 19 -6 25 10 29 16 4 19 14 19
51 -1 26 1 56 3 67 3 15 -2 21 -18 23 -17 3 -23 10 -23 28 0 13 5 24 10 24 6
0 9 13 8 29 -1 16 4 36 11 45 12 14 10 16 -13 16 -14 0 -26 2 -26 5 0 12 45
55 57 55 8 0 12 4 9 9 -8 13 4 42 15 35 5 -3 9 0 9 5 0 19 -18 12 -39 -15 -12
-16 -21 -21 -21 -13 0 8 9 23 21 33 14 11 19 25 15 39 -3 11 0 27 6 34 7 9 7
17 -2 28 -7 8 -9 22 -5 32 7 16 9 15 15 -7 8 -24 8 -24 9 6 1 21 -7 40 -25 58
-15 14 -22 26 -17 26 6 0 13 10 16 23 3 12 10 39 15 60 9 34 8 37 -6 25 -9 -7
-13 -8 -9 -2 3 6 -3 21 -14 33 l-20 21 30 26 c30 25 43 74 21 74 -5 0 -18 8
-29 19 -18 18 -17 19 9 58 29 43 26 68 -6 58 -19 -7 -19 -6 0 9 16 13 17 16 4
21 -10 4 -14 14 -10 27 4 18 2 20 -21 14 -21 -5 -27 -3 -27 10 0 13 6 15 29
11 26 -5 28 -4 24 21 -1 15 0 21 3 15 12 -26 21 -11 22 34 1 31 7 52 17 59 8
6 15 15 15 19 0 5 6 16 14 24 7 9 16 28 20 44 6 24 4 27 -21 28 -17 1 -21 3
-10 6 12 3 17 15 17 40 0 32 -2 35 -25 31 -17 -4 -25 -1 -25 8 0 8 6 14 14 14
8 0 19 14 25 31 14 40 14 40 -1 37 -8 -2 -13 7 -13 22 0 15 -7 26 -15 26 -8 1
-21 2 -27 3 -17 1 -16 19 1 37 19 19 26 18 26 -3 1 -10 7 -3 15 16 8 18 12 38
9 43 -4 6 2 8 15 3 15 -5 21 -2 21 10 0 9 -6 15 -12 14 -31 -4 -40 2 -35 21 4
16 2 20 -12 15 -25 -8 -51 4 -45 20 3 8 18 15 32 17 23 3 27 7 26 36 -1 17 3
32 8 32 6 0 6 6 -2 14 -9 12 -7 21 11 45 12 16 29 33 38 36 13 5 13 8 2 14
-11 7 -11 14 2 40 10 20 12 31 4 31 -6 0 -3 6 7 13 18 13 18 14 2 20 -10 4
-22 5 -27 1 -5 -3 -9 2 -9 10 0 8 4 17 9 21 5 3 8 17 5 30 -2 14 0 25 6 25 5
0 10 -5 10 -12 0 -6 6 -3 14 7 17 23 4 57 -19 49 -20 -8 -53 25 -35 36 23 14
0 32 -32 25 -37 -8 -30 11 9 26 16 6 22 13 16 21 -8 12 -12 80 -4 73 11 -11
28 22 21 41 -5 13 -4 26 3 34 8 8 8 11 1 7 -12 -7 -64 13 -64 24 0 4 7 10 15
13 23 8 45 67 34 88 -7 12 -4 20 8 28 15 9 13 10 -9 5 -16 -3 -28 -3 -28 0 0
11 35 45 47 45 7 0 13 7 13 15 0 9 -6 12 -15 9 -11 -5 -13 -2 -9 10 8 20 -8
20 -46 1 -32 -17 -37 -11 -15 19 7 10 18 15 24 11 6 -3 11 1 11 9 0 9 -6 16
-14 16 -8 0 -17 14 -21 30 -4 17 -11 30 -16 30 -14 0 -11 30 5 46 21 20 26 18
26 -15 0 -17 4 -32 9 -35 13 -8 22 53 11 74 -5 10 -7 26 -4 34 7 17 -11 22
-21 6 -11 -17 -22 -11 -21 13 1 12 9 28 18 35 48 35 42 88 -8 76 -30 -8 -33
18 -5 38 11 8 23 26 26 41 4 15 12 27 17 27 6 0 7 7 4 15 -21 51 -21 51 -4 37
19 -15 31 -3 18 18 -10 16 26 70 47 70 7 0 13 5 13 10 0 13 -17 13 -25 0 -3
-5 -15 -10 -26 -10 -11 0 -36 -12 -55 -26 -31 -24 -34 -25 -34 -8 0 11 9 25
20 32 15 9 20 23 20 57 0 34 5 48 20 57 11 7 20 16 20 21 0 4 -5 5 -10 2 -6
-3 -14 4 -18 16 -8 20 -10 19 -27 -17 -15 -31 -20 -35 -23 -19 -2 10 1 21 7
23 6 2 11 12 11 23 0 10 5 19 11 19 6 0 9 23 6 65 -2 38 1 69 7 75 8 8 4 16
-14 30 -22 16 -23 20 -8 25 9 4 14 13 11 21 -3 7 2 21 11 29 20 21 20 35 0 35
-8 0 -12 5 -9 10 3 5 -3 10 -14 10 -11 0 -22 4 -26 9 -10 16 12 92 31 105 21
16 12 49 -11 40 -17 -7 -22 30 -5 41 6 4 8 11 5 16 -4 5 1 9 10 9 11 0 15 5
12 14 -3 8 -3 17 1 20 3 4 6 25 7 49 1 23 5 60 9 81 7 32 6 37 -5 31 -12 -7
-12 -6 -1 7 10 13 10 18 1 24 -7 4 -15 2 -17 -5 -3 -9 -9 -8 -23 5 -14 13 -16
21 -8 36 6 11 9 30 7 43 -5 25 10 50 30 50 6 0 12 5 12 10 0 6 -7 10 -16 10
-18 0 -35 25 -26 40 10 16 11 34 2 40 -5 3 -4 20 1 37 6 21 5 34 -2 38 -7 5
-6 16 3 35 8 18 9 30 3 32 -6 2 -9 21 -7 43 3 30 1 40 -11 40 -17 0 -30 37
-16 46 5 3 9 11 9 17 0 7 -7 3 -15 -7 -13 -17 -18 -18 -38 -7 -23 12 -23 15
-13 64 12 52 12 84 2 167 -2 25 -5 63 -5 84 -1 37 -2 39 -16 20 -9 -12 -13
-13 -11 -4 2 8 7 35 11 60 5 36 4 43 -6 33 -7 -7 -16 -13 -19 -13 -3 0 -5 35
-6 78 0 65 -4 84 -27 125 -15 26 -27 63 -27 82 0 24 -6 37 -20 45 -13 7 -20
21 -20 39 0 16 -7 34 -15 41 -11 9 -13 16 -5 24 16 16 12 36 -10 36 -13 0 -18
-5 -14 -15 4 -8 2 -15 -3 -15 -5 0 -10 23 -12 51 -2 55 -14 93 -30 104 -6 3
-11 14 -11 24 0 10 -7 24 -15 31 -9 7 -14 19 -11 27 3 7 1 13 -4 13 -6 0 -10
7 -10 15 0 8 -4 15 -10 15 -5 0 -10 13 -10 29 0 16 -6 34 -14 40 -22 19 -71
129 -85 193 -7 32 -17 57 -23 55 -12 -2 -53 102 -69 176 -6 26 -14 47 -18 47
-4 0 -13 11 -19 24 -6 13 -20 35 -32 47 -53 61 -90 107 -90 115 0 17 -49 109
-50 94 -1 -8 -7 -3 -13 11 -7 15 -24 39 -40 54 -15 15 -27 34 -27 41 0 8 -6
14 -14 14 -8 0 -18 10 -22 23 -10 31 -83 134 -101 141 -8 3 -13 15 -11 28 2
14 -2 22 -9 21 -6 -2 -22 14 -34 33 -12 20 -32 46 -44 59 l-23 22 -10 -21 c-8
-17 -11 -11 -17 37 -4 31 -12 57 -17 57 -6 0 -8 -7 -4 -15 3 -8 2 -15 -2 -15
-16 1 -30 17 -41 52 -8 25 -17 35 -27 31 -9 -3 -14 2 -16 18 0 13 -2 29 -3 34
-2 6 -3 16 -4 23 0 6 -7 12 -13 12 -16 0 -58 63 -58 86 0 9 -9 18 -21 21 -15
4 -19 11 -15 26 3 13 -5 27 -25 44 -16 14 -28 28 -25 31 12 11 -53 102 -73
102 -6 0 -11 13 -11 28 0 20 -7 33 -26 42 -25 14 -25 16 -21 101 3 48 10 96
16 107 8 15 8 21 -1 24 -14 5 3 35 71 124 25 32 46 68 47 80 2 22 18 54 52
105 9 15 26 41 37 58 10 17 23 31 28 31 5 0 39 31 76 68 75 77 118 111 184
146 42 23 55 24 155 21 60 -1 115 1 122 5 20 12 38 1 64 -37 l24 -34 18 23
c29 36 235 128 288 128 13 0 29 7 36 15 7 9 19 14 27 11 7 -3 13 -1 13 4 0 6
9 10 20 10 12 0 32 7 46 16 20 13 30 15 49 6 21 -10 27 -8 42 14 10 14 26 35
36 45 10 11 15 24 12 29 -4 6 0 13 8 16 8 3 17 14 20 25 3 13 11 17 21 13 13
-5 16 1 16 25 0 17 5 31 10 31 6 0 10 10 10 23 0 12 7 35 15 51 8 15 15 41 15
57 0 15 5 31 10 34 6 3 10 17 10 30 0 13 7 44 15 68 8 23 15 56 15 72 2 120 0
131 -25 165 -14 19 -25 41 -25 51 0 9 -6 22 -14 28 -8 6 -16 26 -19 44 -9 57
-38 122 -64 143 -18 14 -24 26 -20 37 5 14 0 17 -33 17 -21 0 -42 5 -45 10 -3
6 -18 10 -32 10 -15 0 -72 16 -129 35 -56 19 -129 38 -161 41 -81 9 -227 -11
-302 -41 -53 -20 -79 -24 -150 -23 -51 1 -95 -3 -108 -10 -12 -7 -42 -12 -67
-12 -46 0 -75 -12 -151 -62 -22 -14 -57 -31 -78 -38 -58 -18 -252 -122 -339
-182 -15 -10 -31 -18 -36 -18 -5 0 -17 -9 -27 -20 -10 -11 -24 -20 -32 -20 -7
0 -27 -13 -43 -30 -16 -16 -36 -30 -45 -30 -9 0 -18 -7 -21 -15 -3 -8 -16 -17
-27 -21 -12 -4 -32 -14 -43 -23 -12 -9 -32 -23 -45 -31 -12 -8 -39 -29 -58
-45 -20 -17 -53 -39 -73 -50 -21 -11 -38 -22 -38 -26 0 -9 -80 -92 -106 -109
-12 -8 -52 -43 -88 -77 -36 -35 -69 -63 -74 -63 -4 0 -27 -19 -52 -40 -25 -22
-68 -55 -97 -73 -29 -17 -55 -40 -59 -49 -3 -10 -11 -18 -18 -18 -13 0 -38
-19 -91 -69 -16 -16 -40 -31 -52 -35 -12 -4 -36 -25 -54 -47 -17 -22 -44 -46
-60 -55 -16 -8 -29 -19 -29 -24 0 -11 -85 -100 -95 -100 -12 0 -65 -54 -65
-66 0 -7 -6 -15 -12 -18 -98 -48 -153 -85 -167 -113 -12 -24 -23 -33 -43 -33
-14 0 -29 -6 -32 -12 -3 -7 -5 4 -3 25 2 23 -1 36 -7 34 -22 -8 -47 14 -40 35
5 18 3 20 -16 15 -16 -4 -20 -2 -16 9 8 20 -30 18 -83 -6 -52 -24 -57 -25 -41
-5 18 22 7 28 -23 12 -15 -8 -24 -17 -20 -20 3 -4 1 -7 -5 -7 -7 0 -12 6 -12
13 0 8 -3 8 -9 -2 -11 -17 -45 -7 -38 12 2 6 9 12 15 12 6 0 16 5 23 12 9 9 6
10 -12 6 -21 -6 -22 -4 -11 9 10 13 10 17 -4 22 -22 8 -20 9 -56 -26 l-33 -32
-8 36 -9 36 -33 -14 c-43 -18 -45 -18 -45 2 0 9 -6 22 -13 28 -23 19 -47 117
-57 232 -6 60 -17 156 -25 214 -32 227 -35 264 -36 447 -1 233 6 360 19 395 7
15 8 38 3 55 -4 15 -6 46 -3 67 3 29 0 41 -12 48 -9 5 -16 22 -16 39 0 22 -6
32 -20 36 -20 5 -29 33 -11 33 5 0 7 9 4 20 -3 11 0 20 6 20 14 0 14 53 0 67
-9 9 -8 20 4 45 8 18 22 61 30 96 12 52 12 62 1 58 -8 -3 -11 0 -8 8 3 7 -2
16 -11 20 -11 4 -14 12 -10 27 4 12 9 31 11 42 2 12 6 34 10 50 4 16 2 27 -4
27 -6 0 -10 14 -10 30 1 17 4 30 8 30 10 0 8 34 -2 41 -5 3 3 17 16 31 l26 25
-26 12 c-22 10 -24 14 -13 27 10 12 8 18 -13 35 -24 19 -25 23 -12 47 8 15 14
35 14 45 0 9 5 17 12 17 6 0 8 3 5 7 -4 3 -2 12 4 20 7 8 8 13 1 13 -13 0 -22
49 -11 56 5 3 7 16 5 30 -3 15 2 28 13 36 20 15 35 48 21 48 -12 0 -13 33 -1
46 5 5 11 33 13 62 4 45 3 52 -12 52 -10 0 -18 -6 -17 -12 1 -39 -5 -58 -18
-58 -11 0 -14 14 -11 70 2 39 -1 73 -6 76 -15 9 -31 -12 -32 -42 -1 -38 -39
-51 -67 -23 -16 16 -18 23 -9 35 7 7 15 12 19 10 4 -3 13 -1 21 4 11 7 11 14
4 32 -6 13 -10 56 -9 96 2 75 -6 97 -24 64 -7 -13 -7 -22 1 -30 8 -8 5 -17
-13 -31 -32 -27 -39 -26 -34 7 3 15 6 52 9 82 2 30 7 64 11 75 4 11 -3 5 -15
-12 -12 -18 -28 -33 -35 -33 -18 0 -26 25 -12 39 9 9 6 13 -11 17 -25 7 -30
32 -7 40 10 4 14 14 10 28 -6 21 -6 21 11 1 16 -20 16 -19 9 5 -5 14 -14 30
-22 35 -11 8 -12 17 -3 40 16 42 20 105 6 102 -12 -2 -14 31 -3 80 4 22 2 37
-8 46 -11 12 -11 18 -1 33 14 21 14 33 3 52 -5 6 -5 18 0 25 10 16 4 49 -12
62 -14 11 -45 155 -40 183 2 9 4 44 4 77 2 78 8 88 62 94 4 1 9 19 11 41 2 28
0 40 -9 40 -7 0 -13 5 -13 11 0 18 -88 100 -112 104 -12 3 -26 9 -32 15 -5 5
-18 10 -27 10 -11 0 -20 11 -25 33 -3 17 -16 44 -28 58 -11 15 -29 41 -38 58
-20 37 -61 56 -88 41 -20 -11 -47 11 -36 29 4 5 -4 11 -16 13 -13 2 -23 10
-23 18 0 10 -8 14 -23 12 -18 -3 -23 3 -28 27 -7 34 -13 37 -33 19 -7 -7 -11
-8 -10 -3 4 13 -19 55 -29 55 -5 0 -17 -9 -29 -19 -20 -19 -20 -19 -45 8 -15
16 -28 44 -32 72 -4 26 -15 54 -26 64 -11 10 -20 24 -20 32 0 7 -4 13 -10 13
-5 0 -10 -11 -10 -25 0 -14 -8 -29 -21 -35 -25 -14 -65 -9 -62 8 2 6 -8 19
-21 27 -13 9 -27 27 -30 41 -4 16 -14 25 -29 25 -12 1 -29 2 -38 3 -26 2 -47
25 -53 61 -4 19 -12 35 -19 35 -7 0 -25 12 -40 26 -18 16 -35 24 -48 21 -14
-4 -19 0 -19 14 0 29 -20 22 -31 -11 -14 -37 -25 -38 -32 -2 -4 16 -18 34 -37
44 -17 10 -28 22 -25 28 3 5 1 10 -4 10 -6 0 -11 -15 -11 -32 l-1 -33 -20 24
c-11 13 -24 31 -28 39 -6 10 -14 13 -27 7 -11 -4 -25 -7 -31 -6 -9 1 -13 -12
-13 -39 0 -38 -2 -41 -22 -35 -13 4 -32 16 -44 26 -11 11 -27 19 -35 19 -21 1
-62 38 -54 50 3 5 2 10 -4 10 -11 0 -23 -32 -19 -51 5 -23 -45 -16 -74 10 -16
14 -28 31 -28 38 0 7 -9 13 -20 13 -13 0 -20 -7 -20 -18z m200 -2337 c0 -8 -4
-15 -10 -15 -5 0 -10 7 -10 15 0 8 5 15 10 15 6 0 10 -7 10 -15z m1672 -127
c-9 -9 -15 -9 -24 0 -9 9 -7 12 12 12 19 0 21 -3 12 -12z m-1632 -79 c0 -5 -4
-9 -10 -9 -5 0 -10 7 -10 16 0 8 5 12 10 9 6 -3 10 -10 10 -16z m4974 -1131
c-3 -13 -11 -28 -16 -35 -6 -8 -2 -13 14 -15 l23 -3 -22 -13 c-19 -11 -25 -10
-43 8 -22 22 -27 35 -8 24 7 -4 8 -3 4 4 -8 13 23 52 42 52 9 0 11 -7 6 -22z
m405 -25 c2 -2 -3 -3 -11 -3 -9 0 -19 7 -22 16 -6 15 -4 15 11 3 10 -7 20 -15
22 -16z m78 -38 c0 -8 -4 -12 -9 -9 -4 3 -8 9 -8 15 0 5 4 9 8 9 5 0 9 -7 9
-15z m-849 -15 c-14 -22 -24 -25 -33 -10 -9 15 4 30 26 30 17 0 18 -3 7 -20z
m-58 -17 c-1 -18 -17 -32 -44 -39 l-29 -7 19 26 c17 24 54 37 54 20z m-322
-142 c-7 -9 -13 -17 -14 -19 -1 -1 -9 0 -18 4 -27 10 -18 29 14 30 26 1 28 -1
18 -15z m-88 -21 c0 -15 -7 -20 -28 -20 -15 0 -33 -5 -40 -12 -7 -7 -12 -9
-12 -4 0 10 20 29 45 44 28 16 35 15 35 -8z m-4900 -1080 c0 -5 -2 -10 -4 -10
-3 0 -8 5 -11 10 -3 6 -1 10 4 10 6 0 11 -4 11 -10z m-2580 -234 c0 -3 -4 -8
-10 -11 -5 -3 -10 -1 -10 4 0 6 5 11 10 11 6 0 10 -2 10 -4z m150 -1556 c0 -5
-4 -10 -10 -10 -5 0 -10 5 -10 10 0 6 5 10 10 10 6 0 10 -4 10 -10z m-10 -60
c0 -11 -2 -20 -4 -20 -2 0 -6 9 -9 20 -3 11 -1 20 4 20 5 0 9 -9 9 -20z m-297
-197 c-7 -2 -19 -2 -25 0 -7 3 -2 5 12 5 14 0 19 -2 13 -5z m146 -37 c7 -8 8
-17 3 -20 -6 -3 -12 3 -15 14 -6 24 -4 25 12 6z m-119 -10 c0 -2 -7 -7 -16
-10 -8 -3 -12 -2 -9 4 6 10 25 14 25 6z m-43 -22 c-3 -3 -12 -4 -19 -1 -8 3
-5 6 6 6 11 1 17 -2 13 -5z m63 -54 c0 -5 -2 -10 -4 -10 -3 0 -8 5 -11 10 -3
6 -1 10 4 10 6 0 11 -4 11 -10z m-260 -240 c4 0 10 -8 13 -17 4 -10 14 -29 24
-42 13 -18 14 -23 3 -19 -7 2 -18 13 -24 23 -6 11 -19 30 -28 44 -10 13 -15
28 -11 35 5 7 9 5 11 -6 2 -10 7 -18 12 -18z m50 20 c0 -5 -4 -10 -10 -10 -5
0 -10 5 -10 10 0 6 5 10 10 10 6 0 10 -4 10 -10z m-136 -75 c6 -17 4 -18 -18
-9 -20 8 -21 24 -2 24 8 0 16 -7 20 -15z m76 5 c0 -5 -4 -10 -10 -10 -5 0 -10
5 -10 10 0 6 5 10 10 10 6 0 10 -4 10 -10z m-268 -840 l33 -31 -38 22 c-39 22
-55 39 -38 39 6 0 25 -14 43 -30z m-64 -45 c-3 -3 -9 2 -12 12 -6 14 -5 15 5
6 7 -7 10 -15 7 -18z m192 -37 c13 -10 21 -20 19 -23 -3 -2 -15 4 -27 15 -12
11 -25 20 -30 20 -5 0 -17 10 -28 22 l-19 22 31 -20 c17 -10 41 -27 54 -36z
m380 -88 c0 -5 -4 -10 -10 -10 -5 0 -10 5 -10 10 0 6 5 10 10 10 6 0 10 -4 10
-10z m948 -61 c-3 -8 -7 -3 -11 10 -4 17 -3 21 5 13 5 -5 8 -16 6 -23z m8164
-311 c-7 -7 -12 -8 -12 -2 0 14 12 26 19 19 2 -3 -1 -11 -7 -17z m-6652 -108
c0 -5 -5 -10 -11 -10 -5 0 -7 5 -4 10 3 6 8 10 11 10 2 0 4 -4 4 -10z m-1340
-185 c0 -8 -4 -15 -9 -15 -13 0 -22 16 -14 24 11 11 23 6 23 -9z m1777 -27
c-3 -8 -6 -5 -6 6 -1 11 2 17 5 13 3 -3 4 -12 1 -19z m208 -198 c3 -5 -1 -10
-10 -10 -9 0 -13 5 -10 10 3 6 8 10 10 10 2 0 7 -4 10 -10z m-3762 -24 c4 -10
1 -13 -9 -9 -7 3 -14 9 -14 14 0 14 17 10 23 -5z m3197 -220 c0 -2 -8 -10 -17
-17 -16 -13 -17 -12 -4 4 13 16 21 21 21 13z m-836 -72 c3 -8 2 -12 -4 -9 -6
3 -10 10 -10 16 0 14 7 11 14 -7z m803 -21 c-3 -10 -5 -4 -5 12 0 17 2 24 5
18 2 -7 2 -21 0 -30z m-3177 -83 c0 -5 -4 -10 -10 -10 -5 0 -10 5 -10 10 0 6
5 10 10 10 6 0 10 -4 10 -10z m60 -70 c0 -5 -2 -10 -4 -10 -3 0 -8 5 -11 10
-3 6 -1 10 4 10 6 0 11 -4 11 -10z m1817 -22 c-3 -8 -6 -5 -6 6 -1 11 2 17 5
13 3 -3 4 -12 1 -19z m7928 -8 c-3 -5 0 -10 7 -10 9 0 9 -3 -2 -10 -24 -15
-32 -12 -20 10 6 11 13 20 16 20 3 0 2 -4 -1 -10z m-9679 -34 c7 -8 19 -16 26
-19 7 -2 10 -8 6 -12 -4 -4 -19 5 -35 19 -15 14 -24 26 -20 26 5 0 15 -6 23
-14z m6034 -192 c0 -8 -5 -12 -10 -9 -6 4 -8 11 -5 16 9 14 15 11 15 -7z
m-2733 -16 c-3 -8 -6 -5 -6 6 -1 11 2 17 5 13 3 -3 4 -12 1 -19z m2650 0 c-3
-8 -6 -5 -6 6 -1 11 2 17 5 13 3 -3 4 -12 1 -19z m3683 -173 c-7 -8 -20 -15
-29 -15 -11 0 -8 5 9 14 33 19 35 19 20 1z m-9690 -85 c0 -5 -2 -10 -4 -10 -3
0 -8 5 -11 10 -3 6 -1 10 4 10 6 0 11 -4 11 -10z m6866 -67 c-10 -10 -19 5
-10 18 6 11 8 11 12 0 2 -7 1 -15 -2 -18z m2814 8 c0 -12 -29 -35 -36 -28 -7
6 17 36 29 37 4 0 7 -4 7 -9z m-6783 -23 c-3 -8 -6 -5 -6 6 -1 11 2 17 5 13 3
-3 4 -12 1 -19z m6809 -53 c-21 -16 -32 -13 -21 4 3 6 14 11 23 11 15 -1 15
-2 -2 -15z m-2959 -57 c-3 -8 -6 -5 -6 6 -1 11 2 17 5 13 3 -3 4 -12 1 -19z
m-3470 -100 c-3 -8 -6 -5 -6 6 -1 11 2 17 5 13 3 -3 4 -12 1 -19z m250 -20
c-3 -7 -5 -2 -5 12 0 14 2 19 5 13 2 -7 2 -19 0 -25z m-3427 -73 c7 -9 8 -15
2 -15 -5 0 -12 7 -16 15 -3 8 -4 15 -2 15 2 0 9 -7 16 -15z m9634 -56 c-3 -5
-10 -7 -15 -3 -5 3 -7 10 -3 15 3 5 10 7 15 3 5 -3 7 -10 3 -15z m-3069 -99
c3 -5 2 -10 -4 -10 -5 0 -13 5 -16 10 -3 6 -2 10 4 10 5 0 13 -4 16 -10z
m-2858 -52 c-3 -7 -5 -2 -5 12 0 14 2 19 5 13 2 -7 2 -19 0 -25z m5963 -88 c0
-5 -4 -10 -10 -10 -5 0 -10 5 -10 10 0 6 5 10 10 10 6 0 10 -4 10 -10z m-2223
-112 c-3 -8 -6 -5 -6 6 -1 11 2 17 5 13 3 -3 4 -12 1 -19z m-540 -20 c-3 -8
-6 -5 -6 6 -1 11 2 17 5 13 3 -3 4 -12 1 -19z m-1027 -3 c0 -8 -4 -15 -10 -15
-5 0 -7 7 -4 15 4 8 8 15 10 15 2 0 4 -7 4 -15z m-5805 -44 c3 -5 1 -12 -5
-16 -5 -3 -10 1 -10 9 0 18 6 21 15 7z m7132 -13 c-3 -8 -6 -5 -6 6 -1 11 2
17 5 13 3 -3 4 -12 1 -19z m200 0 c-3 -8 -6 -5 -6 6 -1 11 2 17 5 13 3 -3 4
-12 1 -19z m-677 -298 c0 -5 -2 -10 -4 -10 -3 0 -8 5 -11 10 -3 6 -1 10 4 10
6 0 11 -4 11 -10z m2920 -24 c0 -16 -5 -23 -15 -22 -18 3 -32 16 -17 16 7 0
12 7 12 15 0 8 5 15 10 15 6 0 10 -11 10 -24z m-5777 -71 c-3 -9 -8 -14 -10
-11 -3 3 -2 9 2 15 9 16 15 13 8 -4z m5657 -1 c0 -8 -5 -12 -10 -9 -6 4 -8 11
-5 16 9 14 15 11 15 -7z m111 -87 c-18 -18 -21 -19 -21 -5 0 22 33 55 38 38 3
-7 -5 -22 -17 -33z m-2784 -149 c-3 -8 -6 -5 -6 6 -1 11 2 17 5 13 3 -3 4 -12
1 -19z m2809 -3 c2 -20 -3 -24 -20 -23 -19 2 -21 5 -12 25 14 30 31 29 32 -2z
m-9786 -5 c0 -5 -4 -10 -10 -10 -5 0 -10 5 -10 10 0 6 5 10 10 10 6 0 10 -4
10 -10z m30 -96 c0 -19 -16 -10 -31 17 -10 19 -9 20 10 9 12 -6 21 -18 21 -26z
m2360 -180 c0 -8 -5 -12 -10 -9 -6 4 -8 11 -5 16 9 14 15 11 15 -7z m-2362
-12 c2 -7 -3 -12 -10 -12 -8 0 -15 7 -15 15 0 18 19 15 25 -3z m4467 -221 c3
-5 1 -12 -5 -16 -5 -3 -10 1 -10 9 0 18 6 21 15 7z m-3051 -56 c3 -8 1 -15 -4
-15 -6 0 -10 7 -10 15 0 8 2 15 4 15 2 0 6 -7 10 -15z m-1364 -26 c0 -18 -2
-19 -15 -9 -8 7 -15 16 -15 21 0 5 7 9 15 9 9 0 15 -9 15 -21z m6797 -31 c-3
-7 -5 -2 -5 12 0 14 2 19 5 13 2 -7 2 -19 0 -25z m-3260 -35 c-3 -10 -5 -4 -5
12 0 17 2 24 5 18 2 -7 2 -21 0 -30z m-3577 7 c0 -5 -4 -10 -10 -10 -5 0 -10
5 -10 10 0 6 5 10 10 10 6 0 10 -4 10 -10z m6667 -22 c-3 -8 -6 -5 -6 6 -1 11
2 17 5 13 3 -3 4 -12 1 -19z m103 8 c0 -3 -4 -8 -10 -11 -5 -3 -10 -1 -10 4 0
6 5 11 10 11 6 0 10 -2 10 -4z m-1874 -43 c-10 -10 -19 5 -10 18 6 11 8 11 12
0 2 -7 1 -15 -2 -18z m1091 -55 c-3 -8 -6 -5 -6 6 -1 11 2 17 5 13 3 -3 4 -12
1 -19z m-2370 -65 c-3 -10 -5 -4 -5 12 0 17 2 24 5 18 2 -7 2 -21 0 -30z
m-3639 -41 c6 -18 -15 -14 -22 4 -4 10 -1 14 6 12 6 -2 14 -10 16 -16z m7012
3 c0 -8 -4 -15 -10 -15 -5 0 -7 7 -4 15 4 8 8 15 10 15 2 0 4 -7 4 -15z
m-3343 -47 c-3 -7 -5 -2 -5 12 0 14 2 19 5 13 2 -7 2 -19 0 -25z m2844 15 c13
-16 12 -17 -3 -4 -17 13 -22 21 -14 21 2 0 10 -8 17 -17z m-2624 -30 c-3 -10
-5 -4 -5 12 0 17 2 24 5 18 2 -7 2 -21 0 -30z m990 15 c-3 -8 -6 -5 -6 6 -1
11 2 17 5 13 3 -3 4 -12 1 -19z m-4857 -38 c0 -13 -1 -13 -10 0 -5 8 -10 22
-10 30 0 13 1 13 10 0 5 -8 10 -22 10 -30z m3721 17 c-1 -12 -15 -9 -19 4 -3
6 1 10 8 8 6 -3 11 -8 11 -12z m-3611 -27 c0 -5 -5 -10 -11 -10 -5 0 -7 5 -4
10 3 6 8 10 11 10 2 0 4 -4 4 -10z m-55 -40 c12 -19 -12 -10 -31 11 -19 22
-19 22 3 10 12 -6 25 -16 28 -21z m-67 4 c24 -7 31 -24 9 -24 -15 0 -57 29
-42 30 6 0 20 -3 33 -6z m159 0 c-3 -3 -12 -4 -19 -1 -8 3 -5 6 6 6 11 1 17
-2 13 -5z m30 -86 c-6 -4 -16 -4 -21 -1 -6 4 -6 8 2 11 8 2 9 9 2 21 -5 10 -6
22 -2 25 4 4 12 -5 18 -21 9 -20 9 -30 1 -35z m-127 37 c0 -16 -28 -15 -34 1
-3 8 3 12 15 11 10 -1 19 -6 19 -12z m4877 -20 c-1 -21 -4 -30 -8 -22 -4 7 -6
22 -4 33 5 25 4 24 9 24 2 0 4 -16 3 -35z m-707 -30 c0 -5 -5 -3 -10 5 -5 8
-10 20 -10 25 0 6 5 3 10 -5 5 -8 10 -19 10 -25z m677 -7 c-3 -8 -6 -5 -6 6
-1 11 2 17 5 13 3 -3 4 -12 1 -19z m-4792 -29 c9 -16 11 -29 6 -29 -5 0 -13 9
-16 20 -3 11 -11 20 -16 20 -5 0 -9 7 -9 16 0 21 17 8 35 -27z m82 19 c-3 -8
-6 -5 -6 6 -1 11 2 17 5 13 3 -3 4 -12 1 -19z m4023 -18 c0 -11 -2 -20 -4 -20
-2 0 -6 9 -9 20 -3 11 -1 20 4 20 5 0 9 -9 9 -20z m1147 -12 c-3 -8 -6 -5 -6
6 -1 11 2 17 5 13 3 -3 4 -12 1 -19z m-5147 8 c0 -3 -4 -8 -10 -11 -5 -3 -10
-1 -10 4 0 6 5 11 10 11 6 0 10 -2 10 -4z m3527 -18 c-3 -8 -6 -5 -6 6 -1 11
2 17 5 13 3 -3 4 -12 1 -19z m2063 3 c0 -6 -4 -13 -10 -16 -5 -3 -10 1 -10 9
0 9 5 16 10 16 6 0 10 -4 10 -9z m-574 -28 c-10 -10 -19 5 -10 18 6 11 8 11
12 0 2 -7 1 -15 -2 -18z m-5147 -10 c-7 -10 -14 -20 -16 -22 -1 -2 -1 6 0 18
1 11 8 21 15 21 12 0 12 -3 1 -17z m4236 -11 c-8 -8 -25 10 -19 20 4 6 9 5 15
-3 4 -7 6 -15 4 -17z m-4188 -11 c0 -11 -5 -18 -9 -15 -4 3 -5 11 -1 19 7 21
12 19 10 -4z m324 -18 c13 -16 12 -17 -3 -4 -17 13 -22 21 -14 21 2 0 10 -8
17 -17z m2789 -3 c0 -5 -5 -10 -11 -10 -5 0 -7 5 -4 10 3 6 8 10 11 10 2 0 4
-4 4 -10z m6350 -15 c-13 -14 -26 -23 -28 -20 -5 5 36 45 46 45 3 0 -5 -11
-18 -25z m-9500 0 c6 -8 8 -20 4 -26 -4 -7 -3 -9 4 -5 6 3 13 2 16 -3 3 -5 -3
-11 -14 -14 -15 -4 -20 0 -20 15 0 14 -5 18 -15 14 -15 -5 -21 14 -8 27 10 11
19 8 33 -8z m4779 -29 c0 -14 -2 -16 -6 -6 -3 8 -10 21 -16 28 -7 9 -6 11 7 6
9 -3 16 -16 15 -28z m-4836 4 c3 -11 0 -23 -6 -27 -7 -3 -9 -3 -5 2 4 4 3 16
-3 26 -5 11 -6 19 -1 19 6 0 12 -9 15 -20z m4633 -17 c-11 -11 -19 6 -11 24 8
17 8 17 12 0 3 -10 2 -21 -1 -24z m-4422 11 c3 -8 2 -12 -4 -9 -6 3 -10 10
-10 16 0 14 7 11 14 -7z m-244 -24 c0 -5 -4 -10 -10 -10 -5 0 -10 5 -10 10 0
6 5 10 10 10 6 0 10 -4 10 -10z m4204 -21 c-3 -5 -10 -7 -15 -3 -5 3 -7 10 -3
15 3 5 10 7 15 3 5 -3 7 -10 3 -15z m466 17 c0 -3 -4 -8 -10 -11 -5 -3 -10 -1
-10 4 0 6 5 11 10 11 6 0 10 -2 10 -4z m-4553 -31 c0 -8 -4 -15 -9 -15 -10 0
-11 14 -1 23 9 10 10 9 10 -8z m5479 -22 c-10 -10 -19 5 -10 18 6 11 8 11 12
0 2 -7 1 -15 -2 -18z m4042 11 c-2 -10 -15 -18 -33 -20 l-30 -3 24 20 c28 23
44 24 39 3z m-4698 -4 c0 -5 -5 -10 -11 -10 -5 0 -7 5 -4 10 3 6 8 10 11 10 2
0 4 -4 4 -10z m1227 -22 c-3 -7 -5 -2 -5 12 0 14 2 19 5 13 2 -7 2 -19 0 -25z
m303 28 c0 -3 -4 -8 -10 -11 -5 -3 -10 -1 -10 4 0 6 5 11 10 11 6 0 10 -2 10
-4z m287 -18 c-3 -8 -6 -5 -6 6 -1 11 2 17 5 13 3 -3 4 -12 1 -19z m-6593 -14
c10 -25 1 -27 -19 -4 -15 17 -16 20 -3 20 9 0 19 -7 22 -16z m3861 -24 c-3 -5
-10 -10 -16 -10 -5 0 -9 5 -9 10 0 6 7 10 16 10 8 0 12 -4 9 -10z m424 -29
c-2 -6 -10 2 -17 17 -11 25 -11 25 4 10 9 -9 15 -21 13 -27z m238 2 c-3 -10
-5 -4 -5 12 0 17 2 24 5 18 2 -7 2 -21 0 -30z m-1277 -14 c0 -11 -4 -18 -10
-14 -5 3 -7 12 -3 20 7 21 13 19 13 -6z m-3210 7 c0 -2 -7 -6 -15 -10 -8 -3
-15 -1 -15 4 0 6 7 10 15 10 8 0 15 -2 15 -4z m4607 -28 c-3 -8 -6 -5 -6 6 -1
11 2 17 5 13 3 -3 4 -12 1 -19z m-4697 -4 c0 -8 -4 -12 -10 -9 -5 3 -10 10
-10 16 0 5 5 9 10 9 6 0 10 -7 10 -16z m-120 -4 c0 -5 -5 -10 -11 -10 -5 0 -7
5 -4 10 3 6 8 10 11 10 2 0 4 -4 4 -10z m4342 -40 c-2 -16 -6 -30 -8 -30 -2 0
-4 14 -4 30 0 17 4 30 8 30 5 0 7 -13 4 -30z m5328 2 c0 -4 -9 -15 -20 -25
-22 -19 -25 -15 -10 14 11 19 30 26 30 11z m-5897 -28 c-4 -12 -8 -13 -14 -3
-9 15 -2 32 11 24 5 -3 6 -13 3 -21z m-3716 -16 c-3 -7 -5 -2 -5 12 0 14 2 19
5 13 2 -7 2 -19 0 -25z m122 -2 c-3 -3 -11 5 -18 17 -13 21 -12 21 5 5 10 -10
16 -20 13 -22z m2904 27 c-7 -2 -19 -2 -25 0 -7 3 -2 5 12 5 14 0 19 -2 13 -5z
m-459 -19 c3 -8 2 -12 -4 -9 -6 3 -10 10 -10 16 0 14 7 11 14 -7z m1016 -20
c0 -8 -5 -12 -10 -9 -6 4 -8 11 -5 16 9 14 15 11 15 -7z m-3564 -22 c-8 -9
-19 -13 -22 -9 -10 9 16 38 28 31 6 -4 4 -13 -6 -22z m9524 24 c0 -2 -8 -10
-17 -17 -16 -13 -17 -12 -4 4 13 16 21 21 21 13z m-9475 -26 c-3 -5 -10 -10
-16 -10 -5 0 -9 5 -9 10 0 6 7 10 16 10 8 0 12 -4 9 -10z m5472 -12 c-3 -8 -6
-5 -6 6 -1 11 2 17 5 13 3 -3 4 -12 1 -19z m-1960 -10 c-3 -8 -6 -5 -6 6 -1
11 2 17 5 13 3 -3 4 -12 1 -19z m5923 6 c0 -8 -4 -12 -10 -9 -5 3 -10 10 -10
16 0 5 5 9 10 9 6 0 10 -7 10 -16z m-5772 -54 c0 -9 -3 -7 -8 5 -5 11 -8 29
-8 40 0 16 2 15 8 -5 4 -14 8 -32 8 -40z m417 41 c3 -5 2 -12 -3 -15 -5 -3 -9
1 -9 9 0 17 3 19 12 6z m35 -27 c0 -8 -5 -12 -10 -9 -6 4 -8 11 -5 16 9 14 15
11 15 -7z m-193 -16 c-3 -8 -6 -5 -6 6 -1 11 2 17 5 13 3 -3 4 -12 1 -19z
m3259 -4 c-4 -9 -9 -15 -11 -12 -3 3 -3 13 1 22 4 9 9 15 11 12 3 -3 3 -13 -1
-22z m-4329 -26 c-3 -8 -6 -5 -6 6 -1 11 2 17 5 13 3 -3 4 -12 1 -19z m828
-25 c0 -12 -3 -23 -6 -23 -4 0 -9 11 -11 23 -3 13 0 24 6 24 6 0 11 -11 11
-24z m1772 -15 c-3 -7 -5 -2 -5 12 0 14 2 19 5 13 2 -7 2 -19 0 -25z m-2114
-8 c6 -24 -8 -36 -17 -14 -8 22 -7 34 3 34 5 0 11 -9 14 -20z m520 -20 c3 -11
1 -20 -4 -20 -5 0 -9 9 -9 20 0 11 2 20 4 20 2 0 6 -9 9 -20z m1562 10 c3 -5
-1 -10 -10 -10 -9 0 -13 5 -10 10 3 6 8 10 10 10 2 0 7 -4 10 -10z m-1775 -54
c0 -26 -6 -18 -14 19 -5 22 -4 26 4 15 5 -8 10 -24 10 -34z m-290 14 c0 -5 -2
-10 -4 -10 -3 0 -8 5 -11 10 -3 6 -1 10 4 10 6 0 11 -4 11 -10z m170 -15 c0
-14 -4 -25 -9 -25 -5 0 -8 11 -7 25 1 33 16 33 16 0z m1877 -32 c-3 -10 -5 -4
-5 12 0 17 2 24 5 18 2 -7 2 -21 0 -30z m-2127 12 c0 -8 -2 -15 -4 -15 -2 0
-6 7 -10 15 -3 8 -1 15 4 15 6 0 10 -7 10 -15z m3667 -37 c-3 -8 -6 -5 -6 6
-1 11 2 17 5 13 3 -3 4 -12 1 -19z m-3290 -25 c-3 -10 -5 -4 -5 12 0 17 2 24
5 18 2 -7 2 -21 0 -30z m-1280 -5 c-3 -7 -5 -2 -5 12 0 14 2 19 5 13 2 -7 2
-19 0 -25z m2830 10 c-3 -8 -6 -5 -6 6 -1 11 2 17 5 13 3 -3 4 -12 1 -19z
m-1667 2 c0 -5 -4 -10 -10 -10 -5 0 -10 5 -10 10 0 6 5 10 10 10 6 0 10 -4 10
-10z m-1003 -22 c-3 -8 -6 -5 -6 6 -1 11 2 17 5 13 3 -3 4 -12 1 -19z m1220 0
c-3 -8 -6 -5 -6 6 -1 11 2 17 5 13 3 -3 4 -12 1 -19z m-587 8 c0 -2 -8 -10
-17 -17 -16 -13 -17 -12 -4 4 13 16 21 21 21 13z m1828 -21 c-3 -3 -9 2 -12
12 -6 14 -5 15 5 6 7 -7 10 -15 7 -18z m-2421 -47 c-3 -8 -6 -5 -6 6 -1 11 2
17 5 13 3 -3 4 -12 1 -19z m1090 -10 c-3 -7 -5 -2 -5 12 0 14 2 19 5 13 2 -7
2 -19 0 -25z m197 6 c3 -8 2 -12 -4 -9 -6 3 -10 10 -10 16 0 14 7 11 14 -7z
m3660 1 c-4 -8 -8 -15 -10 -15 -2 0 -4 7 -4 15 0 8 4 15 10 15 5 0 7 -7 4 -15z
m-3734 -15 c0 -11 -2 -20 -4 -20 -2 0 -6 9 -9 20 -3 11 -1 20 4 20 5 0 9 -9 9
-20z m2897 -2 c-3 -8 -6 -5 -6 6 -1 11 2 17 5 13 3 -3 4 -12 1 -19z m-3510
-13 c0 -8 -4 -12 -9 -9 -5 3 -6 10 -3 15 9 13 12 11 12 -6z m2547 -74 c3 -5
-1 -11 -9 -14 -9 -4 -12 -1 -8 9 6 16 10 17 17 5z m-2200 -36 c5 -22 4 -26 -4
-15 -5 8 -10 24 -10 34 0 26 6 18 14 -19z m-504 10 c0 -8 -2 -15 -4 -15 -2 0
-6 7 -10 15 -3 8 -1 15 4 15 6 0 10 -7 10 -15z m3830 8 c0 -5 -5 -15 -10 -23
-8 -12 -10 -11 -10 8 0 12 5 22 10 22 6 0 10 -3 10 -7z m-2932 -28 c-3 -3 -9
2 -12 12 -6 14 -5 15 5 6 7 -7 10 -15 7 -18z m-385 -40 c-3 -9 -8 -14 -10 -11
-3 3 -2 9 2 15 9 16 15 13 8 -4z m-198 -14 c3 -5 2 -12 -3 -15 -5 -3 -9 1 -9
9 0 17 3 19 12 6z m3810 0 c3 -5 1 -12 -5 -16 -5 -3 -10 1 -10 9 0 18 6 21 15
7z m-4444 -64 c-8 -8 -11 -7 -11 4 0 20 13 34 18 19 3 -7 -1 -17 -7 -23z
m1459 7 c0 -8 -4 -12 -10 -9 -5 3 -10 13 -10 21 0 8 5 12 10 9 6 -3 10 -13 10
-21z m1677 -6 c-3 -8 -6 -5 -6 6 -1 11 2 17 5 13 3 -3 4 -12 1 -19z m-2250
-120 c-3 -8 -6 -5 -6 6 -1 11 2 17 5 13 3 -3 4 -12 1 -19z m-580 -63 c0 -8 -4
-15 -9 -15 -4 0 -8 7 -8 15 0 8 4 15 8 15 5 0 9 -7 9 -15z m-320 -67 c-3 -7
-5 -2 -5 12 0 14 2 19 5 13 2 -7 2 -19 0 -25z m6708 -18 c-3 -5 -10 -10 -16
-10 -5 0 -9 5 -9 10 0 6 7 10 16 10 8 0 12 -4 9 -10z m-6415 -21 c0 -6 -4 -7
-10 -4 -5 3 -10 11 -10 16 0 6 5 7 10 4 6 -3 10 -11 10 -16z m2857 -81 c-3 -8
-6 -5 -6 6 -1 11 2 17 5 13 3 -3 4 -12 1 -19z m-3242 -8 c3 -5 1 -10 -4 -10
-6 0 -11 5 -11 10 0 6 2 10 4 10 3 0 8 -4 11 -10z m229 -5 c-4 -8 -8 -15 -10
-15 -2 0 -4 7 -4 15 0 8 4 15 10 15 5 0 7 -7 4 -15z m2953 -7 c-3 -8 -6 -5 -6
6 -1 11 2 17 5 13 3 -3 4 -12 1 -19z m3608 -218 c-3 -5 -10 -10 -16 -10 -5 0
-9 5 -9 10 0 6 7 10 16 10 8 0 12 -4 9 -10z m20 -30 c-3 -5 -11 -10 -16 -10
-6 0 -7 5 -4 10 3 6 11 10 16 10 6 0 7 -4 4 -10z m-7005 -46 c0 -8 -5 -12 -10
-9 -6 4 -8 11 -5 16 9 14 15 11 15 -7z m825 -22 c-8 -8 -25 10 -19 20 4 6 9 5
15 -3 4 -7 6 -15 4 -17z m-2186 -226 c-3 -3 -11 5 -18 17 -13 21 -12 21 5 5
10 -10 16 -20 13 -22z m138 -89 c-4 -7 -6 -6 -6 4 -1 9 -8 22 -16 29 -8 7 -15
17 -15 23 0 5 9 -2 21 -17 11 -14 18 -32 16 -39z m1140 -49 c-3 -8 -6 -5 -6 6
-1 11 2 17 5 13 3 -3 4 -12 1 -19z m-137 -48 c0 -5 -2 -10 -4 -10 -3 0 -8 5
-11 10 -3 6 -1 10 4 10 6 0 11 -4 11 -10z m-41 -84 c-3 -3 -11 5 -18 17 -13
21 -12 21 5 5 10 -10 16 -20 13 -22z m-62 -38 c-3 -8 -6 -5 -6 6 -1 11 2 17 5
13 3 -3 4 -12 1 -19z m-2070 -104 c-9 -9 -28 6 -21 18 4 6 10 6 17 -1 6 -6 8
-13 4 -17z m2184 -21 c13 -16 12 -17 -3 -4 -17 13 -22 21 -14 21 2 0 10 -8 17
-17z m-391 -33 c0 -5 -2 -10 -4 -10 -3 0 -8 5 -11 10 -3 6 -1 10 4 10 6 0 11
-4 11 -10z m85 -30 c3 -5 1 -10 -4 -10 -6 0 -11 5 -11 10 0 6 2 10 4 10 3 0 8
-4 11 -10z m569 -26 c3 -8 2 -12 -4 -9 -6 3 -10 10 -10 16 0 14 7 11 14 -7z
m7176 7 c0 -6 -4 -13 -10 -16 -5 -3 -10 1 -10 9 0 9 5 16 10 16 6 0 10 -4 10
-9z m-8756 -16 c3 -8 1 -15 -4 -15 -6 0 -10 7 -10 15 0 8 2 15 4 15 2 0 6 -7
10 -15z m1270 -21 c3 -8 2 -12 -4 -9 -6 3 -10 10 -10 16 0 14 7 11 14 -7z
m513 -6 c-3 -8 -6 -5 -6 6 -1 11 2 17 5 13 3 -3 4 -12 1 -19z m6878 12 c-3 -5
-10 -10 -16 -10 -5 0 -9 5 -9 10 0 6 7 10 16 10 8 0 12 -4 9 -10z m-7611 -76
c5 -12 2 -15 -10 -10 -8 3 -18 6 -20 6 -3 0 -2 5 1 10 9 15 22 12 29 -6z
m7760 1 c-4 -8 -11 -15 -16 -15 -6 0 -5 6 2 15 7 8 14 15 16 15 2 0 1 -7 -2
-15z m50 -49 c-4 -12 -19 -19 -54 -26 -2 -1 -6 3 -8 9 -2 6 6 11 17 11 12 0
21 5 21 10 0 6 7 10 15 10 8 0 12 -6 9 -14z m-7404 0 c0 -3 -4 -8 -10 -11 -5
-3 -10 -1 -10 4 0 6 5 11 10 11 6 0 10 -2 10 -4z m-690 -41 c0 -8 -2 -15 -4
-15 -2 0 -6 7 -10 15 -3 8 -1 15 4 15 6 0 10 -7 10 -15z m1865 -44 c-6 -5 -25
10 -25 20 0 5 6 4 14 -3 8 -7 12 -15 11 -17z m752 -23 c-3 -8 -6 -5 -6 6 -1
11 2 17 5 13 3 -3 4 -12 1 -19z m1010 -10 c-3 -7 -5 -2 -5 12 0 14 2 19 5 13
2 -7 2 -19 0 -25z m-5312 -68 c3 -5 1 -10 -4 -10 -6 0 -11 5 -11 10 0 6 2 10
4 10 3 0 8 -4 11 -10z m1844 -34 c-2 -2 -13 8 -23 22 l-19 27 24 -22 c12 -12
21 -24 18 -27z m1125 -42 c3 -8 2 -12 -4 -9 -6 3 -10 10 -10 16 0 14 7 11 14
-7z m561 -2 c-3 -3 -11 0 -18 7 -9 10 -8 11 6 5 10 -3 15 -9 12 -12z m-1357
-17 c-3 -3 -9 2 -12 12 -6 14 -5 15 5 6 7 -7 10 -15 7 -18z m-851 -42 c-3 -10
-5 -4 -5 12 0 17 2 24 5 18 2 -7 2 -21 0 -30z m8518 7 c3 -5 2 -10 -4 -10 -5
0 -13 5 -16 10 -3 6 -2 10 4 10 5 0 13 -4 16 -10z m-7525 -24 c0 -3 -4 -8 -10
-11 -5 -3 -10 -1 -10 4 0 6 5 11 10 11 6 0 10 -2 10 -4z m7540 -16 c0 -5 -4
-10 -10 -10 -5 0 -10 5 -10 10 0 6 5 10 10 10 6 0 10 -4 10 -10z m-6652 -91
c-3 -8 -7 -3 -11 10 -4 17 -3 21 5 13 5 -5 8 -16 6 -23z m789 -31 c-3 -8 -6
-5 -6 6 -1 11 2 17 5 13 3 -3 4 -12 1 -19z m1193 12 c0 -5 -5 -10 -11 -10 -5
0 -7 5 -4 10 3 6 8 10 11 10 2 0 4 -4 4 -10z m-1532 -25 c-3 -3 -9 2 -12 12
-6 14 -5 15 5 6 7 -7 10 -15 7 -18z m-281 -17 c-3 -8 -6 -5 -6 6 -1 11 2 17 5
13 3 -3 4 -12 1 -19z m-3275 -5 c10 -9 18 -20 18 -25 0 -17 -32 -7 -56 17 -25
25 -25 25 -3 25 12 0 31 -7 41 -17z m3085 -15 c-3 -7 -5 -2 -5 12 0 14 2 19 5
13 2 -7 2 -19 0 -25z m733 17 c0 -8 -2 -15 -4 -15 -2 0 -6 7 -10 15 -3 8 -1
15 4 15 6 0 10 -7 10 -15z m-1527 -37 c-8 -44 -10 -45 -15 -4 -3 25 0 36 9 36
9 0 11 -10 6 -32z m7423 19 c15 5 44 -13 44 -28 0 -13 -58 -11 -66 2 -4 8 -9
8 -17 0 -6 -6 -20 -11 -30 -11 -16 0 -12 5 14 23 19 13 35 20 37 16 2 -4 10
-5 18 -2z m-6263 -40 c3 -8 -1 -14 -8 -14 -7 0 -11 6 -8 14 3 7 6 13 8 13 2 0
5 -6 8 -13z m124 -29 c-3 -8 -6 -5 -6 6 -1 11 2 17 5 13 3 -3 4 -12 1 -19z
m-477 -37 c0 -6 -4 -12 -8 -15 -5 -3 -9 1 -9 9 0 8 4 15 9 15 4 0 8 -4 8 -9z
m497 -73 c-3 -7 -5 -2 -5 12 0 14 2 19 5 13 2 -7 2 -19 0 -25z m-377 -89 c0
-5 -4 -9 -10 -9 -5 0 -10 7 -10 16 0 8 5 12 10 9 6 -3 10 -10 10 -16z m-1655
-39 c3 -5 1 -10 -4 -10 -6 0 -11 5 -11 10 0 6 2 10 4 10 3 0 8 -4 11 -10z
m8225 0 c0 -5 -5 -10 -11 -10 -5 0 -7 5 -4 10 3 6 8 10 11 10 2 0 4 -4 4 -10z
m-6983 -42 c-3 -8 -6 -5 -6 6 -1 11 2 17 5 13 3 -3 4 -12 1 -19z m-557 -23 c0
-5 -5 -3 -10 5 -5 8 -10 20 -10 25 0 6 5 3 10 -5 5 -8 10 -19 10 -25z m97 -77
c-3 -7 -5 -2 -5 12 0 14 2 19 5 13 2 -7 2 -19 0 -25z m-552 -59 c11 -17 -1
-21 -15 -4 -8 9 -8 15 -2 15 6 0 14 -5 17 -11z m495 -69 c8 13 10 12 10 -3 0
-22 -31 -19 -37 3 -4 13 -3 13 6 0 10 -13 12 -13 21 0z m-2265 -49 c-3 -6 -11
-11 -16 -11 -5 0 -4 6 3 14 14 16 24 13 13 -3z m9795 -1 c0 -5 -13 -16 -29
-25 -21 -11 -29 -21 -26 -35 2 -12 0 -18 -6 -15 -5 4 -7 11 -4 16 9 13 -9 11
-23 -3 -6 -6 -14 -9 -18 -6 -3 4 6 14 20 23 14 10 26 23 26 30 0 13 17 21 48
24 6 0 12 -3 12 -9z m-9795 -130 c3 -5 2 -10 -4 -10 -5 0 -13 5 -16 10 -3 6
-2 10 4 10 5 0 13 -4 16 -10z m3 -52 c51 -31 22 -34 -40 -4 -47 23 -50 25 -24
26 16 0 45 -10 64 -22z m2366 -48 c7 -24 6 -24 -8 -6 -9 11 -16 29 -16 40 1
17 2 18 9 6 5 -8 12 -26 15 -40z m-2289 10 c13 -6 15 -9 5 -9 -8 0 -22 4 -30
9 -18 12 -2 12 25 0z m-60 -80 c-3 -5 -10 -10 -16 -10 -5 0 -9 5 -9 10 0 6 7
10 16 10 8 0 12 -4 9 -10z m2342 -22 c-3 -8 -6 -5 -6 6 -1 11 2 17 5 13 3 -3
4 -12 1 -19z m-2247 2 c0 -5 -8 -10 -17 -10 -15 0 -16 2 -3 10 19 12 20 12 20
0z m9535 -50 c-3 -5 -10 -10 -16 -10 -5 0 -9 5 -9 10 0 6 7 10 16 10 8 0 12
-4 9 -10z m-7995 -4 c0 -11 -19 -15 -25 -6 -3 5 1 10 9 10 9 0 16 -2 16 -4z
m886 -91 c1 -8 -2 -13 -7 -9 -5 3 -9 12 -9 21 0 19 13 9 16 -12z m111 -77 c-3
-7 -5 -2 -5 12 0 14 2 19 5 13 2 -7 2 -19 0 -25z m5098 22 c-3 -5 -12 -10 -18
-10 -7 0 -6 4 3 10 19 12 23 12 15 0z m-5508 -62 c-3 -7 -5 -2 -5 12 0 14 2
19 5 13 2 -7 2 -19 0 -25z m4911 -378 c-7 -10 -14 -17 -17 -15 -4 4 18 35 25
35 2 0 -1 -9 -8 -20z m-5011 -135 c0 -8 -4 -12 -9 -9 -5 3 -6 10 -3 15 9 13
12 11 12 -6z m-2007 -126 c0 -14 -17 -10 -23 5 -4 10 -1 13 9 9 7 -3 14 -9 14
-14z m2641 -2 c-10 -9 -11 -8 -5 6 3 10 9 15 12 12 3 -3 0 -11 -7 -18z m-367
-236 c4 -5 -3 -7 -14 -4 -23 6 -26 13 -6 13 8 0 17 -4 20 -9z m-104 -42 c0 -6
-4 -7 -10 -4 -5 3 -10 11 -10 16 0 6 5 7 10 4 6 -3 10 -11 10 -16z m199 7 c9
-11 9 -16 -1 -22 -7 -4 -10 -4 -6 1 4 4 3 14 -3 22 -6 7 -9 13 -6 13 2 0 10
-6 16 -14z m5242 -29 c-10 -9 -11 -8 -5 6 3 10 9 15 12 12 3 -3 0 -11 -7 -18z
m-5665 -32 c1 -8 -2 -13 -7 -9 -5 3 -9 12 -9 21 0 19 13 9 16 -12z m1739 -105
c3 -5 1 -10 -4 -10 -6 0 -11 5 -11 10 0 6 2 10 4 10 3 0 8 -4 11 -10z m-1420
-40 c3 -5 1 -10 -4 -10 -6 0 -11 5 -11 10 0 6 2 10 4 10 3 0 8 -4 11 -10z
m2502 -42 c-3 -7 -5 -2 -5 12 0 14 2 19 5 13 2 -7 2 -19 0 -25z m-2602 -97 c3
-5 1 -12 -5 -16 -5 -3 -10 1 -10 9 0 18 6 21 15 7z m142 -44 c2 -23 0 -28 -7
-17 -12 18 -13 50 -2 50 4 0 8 -15 9 -33z m-113 -39 c16 -2 17 -5 5 -14 -11
-9 -20 -3 -44 25 -24 29 -25 32 -5 14 14 -11 34 -23 44 -25z m-89 -98 c3 -6
-1 -7 -9 -4 -18 7 -21 14 -7 14 6 0 13 -4 16 -10z m22 -32 c-3 -8 -6 -5 -6 6
-1 11 2 17 5 13 3 -3 4 -12 1 -19z m-127 -19 c0 -6 -4 -7 -10 -4 -5 3 -10 11
-10 16 0 6 5 7 10 4 6 -3 10 -11 10 -16z m3467 -261 c-3 -8 -6 -5 -6 6 -1 11
2 17 5 13 3 -3 4 -12 1 -19z m-590 -1030 c-3 -8 -6 -5 -6 6 -1 11 2 17 5 13 3
-3 4 -12 1 -19z m-537 -28 c0 -11 -2 -20 -4 -20 -2 0 -6 9 -9 20 -3 11 -1 20
4 20 5 0 9 -9 9 -20z m-271 -144 c0 -15 -4 -12 -14 14 -18 48 -18 72 0 36 8
-15 15 -38 14 -50z m861 -10 c0 -3 -4 -8 -10 -11 -5 -3 -10 -1 -10 4 0 6 5 11
10 11 6 0 10 -2 10 -4z m-507 -99 c3 -8 -1 -14 -9 -14 -15 0 -18 9 -7 20 9 9
10 9 16 -6z m190 -102 c4 -8 2 -17 -3 -20 -6 -4 -10 3 -10 14 0 25 6 27 13 6z
m657 -151 c0 -14 -4 -23 -9 -20 -5 3 -7 15 -4 26 7 28 13 25 13 -6z m-410
-106 c0 -32 -15 -19 -17 15 -2 23 0 28 7 17 5 -8 10 -23 10 -32z m-73 -10
c-20 -13 -27 -9 -27 12 0 18 3 19 20 8 14 -9 16 -14 7 -20z m-557 0 c0 -18 -2
-20 -9 -8 -6 8 -7 18 -5 22 9 14 14 9 14 -14z m-705 -56 c-3 -3 -11 0 -18 7
-9 10 -8 11 6 5 10 -3 15 -9 12 -12z m229 -358 c3 -8 2 -12 -4 -9 -6 3 -10 10
-10 16 0 14 7 11 14 -7z m593 -126 c-3 -8 -6 -5 -6 6 -1 11 2 17 5 13 3 -3 4
-12 1 -19z m-570 -74 c-3 -3 -12 -4 -19 -1 -8 3 -5 6 6 6 11 1 17 -2 13 -5z
m63 -50 c0 -8 -4 -12 -10 -9 -5 3 -10 13 -10 21 0 8 5 12 10 9 6 -3 10 -13 10
-21z m-465 -454 c3 -5 1 -10 -4 -10 -6 0 -11 5 -11 10 0 6 2 10 4 10 3 0 8 -4
11 -10z m-170 -58 c-3 -3 -11 0 -18 7 -9 10 -8 11 6 5 10 -3 15 -9 12 -12z
m5605 -6 c0 -17 -27 -29 -35 -16 -4 6 -1 10 5 10 6 0 8 5 5 10 -3 6 1 10 9 10
9 0 16 -6 16 -14z m-7347 -141 c-3 -9 -8 -14 -10 -11 -3 3 -2 9 2 15 9 16 15
13 8 -4z m7217 -181 c0 -8 -4 -12 -10 -9 -5 3 -10 13 -10 21 0 8 5 12 10 9 6
-3 10 -13 10 -21z m-7235 -104 c3 -6 -1 -7 -9 -4 -18 7 -21 14 -7 14 6 0 13
-4 16 -10z m72 -66 c-3 -3 -12 -4 -19 -1 -8 3 -5 6 6 6 11 1 17 -2 13 -5z
m156 -121 c-7 -2 -19 -2 -25 0 -7 3 -2 5 12 5 14 0 19 -2 13 -5z m107 -27 c0
-11 -19 -15 -25 -6 -3 5 1 10 9 10 9 0 16 -2 16 -4z m-158 -78 c-7 -7 -12 -8
-12 -2 0 14 12 26 19 19 2 -3 -1 -11 -7 -17z m-26 -105 c-6 -6 -36 9 -36 18 0
5 9 4 20 -3 10 -7 18 -14 16 -15z m39 18 c3 -5 1 -12 -5 -16 -5 -3 -10 1 -10
9 0 18 6 21 15 7z m7025 -61 c0 -19 -18 -19 -23 -1 -3 14 -1 18 9 14 8 -3 14
-9 14 -13z m-30 -112 c0 -11 -5 -16 -10 -13 -6 4 -8 11 -5 16 4 5 -1 9 -9 9
-18 0 -29 16 -21 31 10 15 45 -19 45 -43z m-38 -58 c-5 -36 -8 -37 -23 -9 -9
17 -8 23 2 30 22 14 26 11 21 -21z m-6982 -10 c0 -5 -5 -10 -11 -10 -5 0 -7 5
-4 10 3 6 8 10 11 10 2 0 4 -4 4 -10z m7050 -411 c0 -3 -9 -14 -20 -24 -20
-18 -20 -17 -20 19 0 34 1 35 20 24 11 -7 20 -16 20 -19z m-6762 -77 c-2 -9
-17 -16 -38 -18 -33 -3 -34 -3 -15 12 11 8 19 19 18 24 -1 4 7 6 18 3 11 -3
19 -12 17 -21z m6762 -2 c0 -5 -2 -10 -4 -10 -3 0 -8 5 -11 10 -3 6 -1 10 4
10 6 0 11 -4 11 -10z m-6810 -50 c11 -7 11 -10 2 -10 -7 0 -10 -5 -6 -11 4 -7
1 -10 -7 -7 -15 5 -26 38 -12 38 4 0 15 -5 23 -10z m6814 -36 c3 -9 5 -30 5
-47 -1 -24 -3 -26 -6 -9 -2 12 -9 22 -14 22 -5 0 -9 11 -9 25 0 28 15 34 24 9z
m-6847 -19 c-4 -8 -14 -15 -23 -15 -16 0 -16 2 1 20 20 22 31 20 22 -5z m66
-7 c5 -37 3 -43 -12 -33 -13 8 -15 65 -2 65 5 0 11 -15 14 -32z m-33 -47 c0
-4 -19 -8 -42 -9 l-43 -1 35 13 c35 13 50 12 50 -3z m6824 -26 c3 -8 1 -15 -4
-15 -6 0 -10 7 -10 15 0 8 2 15 4 15 2 0 6 -7 10 -15z m-6834 -24 c0 -17 -30
-40 -45 -34 -11 4 -13 1 -9 -11 4 -10 0 -18 -10 -22 -21 -8 -35 4 -18 15 7 4
12 13 10 19 -2 7 8 18 22 26 30 17 50 19 50 7z m-93 -97 c-3 -3 -12 -4 -19 -1
-8 3 -5 6 6 6 11 1 17 -2 13 -5z m6940 -56 c-2 -13 -4 -3 -4 22 0 25 2 35 4
23 2 -13 2 -33 0 -45z m-6941 -62 l33 -34 -24 -16 c-22 -15 -25 -15 -25 -1 0
8 6 15 13 15 6 0 0 12 -15 25 -26 22 -37 45 -22 45 4 0 22 -15 40 -34z m69 14
c-3 -5 -14 -10 -23 -10 -15 0 -15 2 -2 10 20 13 33 13 25 0z m6805 -41 c0 -11
-4 -17 -10 -14 -5 3 -10 13 -10 21 0 8 5 14 10 14 6 0 10 -9 10 -21z m-6900 1
c0 -5 -5 -10 -11 -10 -5 0 -7 5 -4 10 3 6 8 10 11 10 2 0 4 -4 4 -10z m-11
-58 c-11 -2 -15 -10 -12 -22 3 -12 -2 -22 -15 -29 -18 -10 -20 -8 -17 9 2 11
0 20 -6 20 -5 0 -9 4 -9 9 0 12 52 30 65 22 6 -3 3 -7 -6 -9z m52 -37 c1 -17
-18 -17 -25 0 -4 11 -1 15 10 13 8 -2 15 -7 15 -13z m-59 -60 c-16 -22 -62
-41 -62 -26 0 14 24 31 43 31 13 0 17 5 14 14 -4 10 -1 13 8 10 12 -5 12 -10
-3 -29z m6282 -28 c-3 -8 -11 -14 -18 -14 -8 0 -12 6 -9 14 3 7 11 13 19 13 7
0 11 -6 8 -13z m-6250 -28 c-3 -5 -10 -7 -15 -3 -5 3 -7 10 -3 15 3 5 10 7 15
3 5 -3 7 -10 3 -15z m-34 -7 c0 -10 5 -23 12 -30 6 -6 8 -15 3 -19 -4 -5 -10
-2 -12 4 -3 8 -14 11 -27 7 -19 -4 -22 -1 -20 23 2 35 0 33 24 33 13 0 20 -7
20 -18z m-60 -44 c0 -5 -9 -8 -20 -8 -22 0 -28 26 -7 33 12 4 27 -10 27 -25z
m-20 -108 c0 -5 -9 -14 -20 -20 -17 -9 -20 -8 -20 10 0 13 7 20 20 20 11 0 20
-4 20 -10z m57 -36 c-3 -3 -12 -4 -19 -1 -8 3 -5 6 6 6 11 1 17 -2 13 -5z
m5733 -18 c0 -2 -7 -6 -15 -10 -8 -3 -15 -1 -15 4 0 6 7 10 15 10 8 0 15 -2
15 -4z m-5797 -23 c-7 -2 -19 -2 -25 0 -7 3 -2 5 12 5 14 0 19 -2 13 -5z
m5854 1 c-3 -3 -12 -4 -19 -1 -8 3 -5 6 6 6 11 1 17 -2 13 -5z m93 -64 c0 -5
-2 -10 -4 -10 -3 0 -8 5 -11 10 -3 6 -1 10 4 10 6 0 11 -4 11 -10z m-62 -76
c-4 -3 -10 -6 -14 -7 -5 -1 -18 -12 -31 -24 -12 -13 -27 -23 -33 -23 -16 0 10
37 35 49 22 11 52 14 43 5z m-123 -314 c-3 -5 -12 -10 -18 -10 -7 0 -6 4 3 10
19 12 23 12 15 0z m-4396 -249 c6 -10 21 -21 35 -25 24 -6 45 -36 24 -36 -7 0
-6 -5 2 -15 7 -8 19 -15 27 -15 8 0 26 -9 40 -20 14 -11 20 -20 14 -20 -7 0
-9 -5 -6 -10 5 -8 11 -7 20 0 15 12 35 6 35 -10 0 -5 -8 -6 -17 -3 -16 6 -16
5 -4 -10 17 -22 -2 -22 -24 -1 -14 14 -68 33 -102 36 -7 1 -13 5 -13 10 0 4
-13 8 -30 8 -16 0 -30 -4 -30 -10 0 -22 -47 -10 -58 15 -22 47 -5 94 34 96 11
0 13 3 7 6 -22 8 -14 23 12 23 14 0 29 -8 34 -19z m41 -191 c0 -5 -12 -10 -27
-10 -22 0 -25 2 -13 10 20 13 40 13 40 0z m553 -47 c-7 -2 -19 -2 -25 0 -7 3
-2 5 12 5 14 0 19 -2 13 -5z m72 -223 c-27 -12 -35 -12 -35 0 0 6 12 10 28 9
24 0 25 -1 7 -9z m180 -179 c-3 -6 -11 -8 -17 -5 -6 4 -5 9 3 15 16 10 23 4
14 -10z m-85 -1 c11 -7 5 -8 -20 -4 -43 8 -51 14 -19 14 13 0 31 -5 39 -10z
m1550 -510 c0 -5 -9 -10 -20 -10 -11 0 -20 5 -20 10 0 6 9 10 20 10 11 0 20
-4 20 -10z m-324 -157 c-2 -2 -11 0 -20 3 -14 5 -15 9 -5 15 12 7 34 -10 25
-18z m304 -104 c0 -11 -4 -17 -10 -14 -5 3 -10 13 -10 21 0 8 5 14 10 14 6 0
10 -9 10 -21z m319 -325 c-17 -21 -31 -17 -19 6 6 11 15 18 21 14 6 -4 6 -11
-2 -20z"/>
<path d="M820 20169 c0 -5 5 -7 10 -4 6 3 10 8 10 11 0 2 -4 4 -10 4 -5 0 -10
-5 -10 -11z"/>
<path d="M9888 18044 c-5 -4 -8 -19 -8 -33 0 -18 3 -22 11 -14 6 6 9 21 7 33
-1 12 -6 18 -10 14z"/>
<path d="M9881 17864 c0 -11 3 -14 6 -6 3 7 2 16 -1 19 -3 4 -6 -2 -5 -13z"/>
<path d="M9910 17140 c0 -5 5 -10 11 -10 5 0 7 5 4 10 -3 6 -8 10 -11 10 -2 0
-4 -4 -4 -10z"/>
<path d="M40 16570 c0 -5 5 -10 11 -10 5 0 7 5 4 10 -3 6 -8 10 -11 10 -2 0
-4 -4 -4 -10z"/>
<path d="M9930 16090 c-8 -5 -12 -11 -9 -14 2 -3 11 -1 19 4 8 5 12 11 9 14
-2 3 -11 1 -19 -4z"/>
<path d="M9855 14670 c-3 -5 -1 -10 4 -10 6 0 11 5 11 10 0 6 -2 10 -4 10 -3
0 -8 -4 -11 -10z"/>
<path d="M60 14609 c7 -11 14 -19 16 -16 7 7 -7 37 -17 37 -6 0 -5 -9 1 -21z"/>
<path d="M9875 14050 c-3 -5 -1 -10 4 -10 6 0 11 5 11 10 0 6 -2 10 -4 10 -3
0 -8 -4 -11 -10z"/>
<path d="M18 13998 c-6 -17 1 -38 13 -38 4 0 6 7 3 15 -4 8 -1 15 6 15 6 0 8
5 5 10 -9 14 -22 13 -27 -2z"/>
<path d="M65 13931 c-3 -5 -1 -12 5 -16 12 -7 30 2 30 16 0 12 -27 12 -35 0z"/>
<path d="M9855 13826 c1 -22 6 -50 11 -61 7 -16 10 -12 15 24 4 34 2 48 -12
62 -16 16 -17 15 -14 -25z"/>
<path d="M9815 13770 c-3 -5 1 -10 9 -10 9 0 16 5 16 10 0 6 -4 10 -9 10 -6 0
-13 -4 -16 -10z"/>
<path d="M9861 13723 c0 -4 4 -17 9 -28 8 -19 9 -19 9 2 1 12 -3 25 -9 28 -5
3 -10 3 -9 -2z"/>
<path d="M9880 13665 c-21 -25 -2 -31 20 -7 15 16 17 22 7 22 -8 0 -20 -7 -27
-15z"/>
<path d="M9831 13558 c-1 -23 15 -32 23 -12 3 8 2 13 -3 9 -5 -3 -12 1 -14 7
-4 8 -6 7 -6 -4z"/>
<path d="M9884 13521 c2 -34 16 -55 16 -23 0 11 6 23 13 25 9 4 8 8 -3 16 -23
17 -28 13 -26 -18z"/>
<path d="M9897 13393 c-7 -11 10 -40 18 -31 4 4 3 14 -3 24 -5 9 -12 12 -15 7z"/>
<path d="M9812 13348 c-7 -7 -12 -19 -12 -27 0 -19 23 1 26 24 3 18 1 18 -14
3z"/>
<path d="M9901 13334 c0 -11 3 -14 6 -6 3 7 2 16 -1 19 -3 4 -6 -2 -5 -13z"/>
<path d="M9901 13234 c0 -11 3 -14 6 -6 3 7 2 16 -1 19 -3 4 -6 -2 -5 -13z"/>
<path d="M9855 13080 c4 -6 11 -8 16 -5 14 9 11 15 -7 15 -8 0 -12 -5 -9 -10z"/>
<path d="M9760 13070 c0 -13 11 -13 30 0 12 8 11 10 -7 10 -13 0 -23 -4 -23
-10z"/>
<path d="M9900 13062 c0 -12 4 -22 9 -22 10 0 9 26 -2 36 -4 4 -7 -2 -7 -14z"/>
<path d="M9900 13011 c0 -25 6 -27 13 -6 4 8 2 17 -3 20 -6 4 -10 -3 -10 -14z"/>
<path d="M9821 11748 c-1 -16 4 -28 9 -28 12 0 12 8 0 35 -8 18 -9 17 -9 -7z"/>
<path d="M9828 11608 c7 -7 12 -21 12 -32 0 -16 2 -18 9 -7 10 15 -7 51 -23
51 -6 0 -5 -5 2 -12z"/>
<path d="M9881 11544 c0 -11 3 -14 6 -6 3 7 2 16 -1 19 -3 4 -6 -2 -5 -13z"/>
<path d="M9934 11456 c4 -10 1 -25 -5 -32 -8 -10 -8 -14 -1 -14 7 0 9 -8 5
-17 -4 -13 -3 -15 6 -7 19 17 21 51 4 71 -14 17 -14 17 -9 -1z"/>
<path d="M10086 10782 c-3 -5 1 -9 9 -9 8 0 12 4 9 9 -3 4 -7 8 -9 8 -2 0 -6
-4 -9 -8z"/>
<path d="M10080 9939 c0 -5 5 -7 10 -4 6 3 10 8 10 11 0 2 -4 4 -10 4 -5 0
-10 -5 -10 -11z"/>
<path d="M287 9663 c-4 -3 -7 -11 -7 -17 0 -6 5 -5 12 2 6 6 9 14 7 17 -3 3
-9 2 -12 -2z"/>
<path d="M10000 9569 c0 -11 5 -17 10 -14 6 3 10 13 10 21 0 8 -4 14 -10 14
-5 0 -10 -9 -10 -21z"/>
<path d="M9232 4178 c2 -12 9 -23 16 -26 18 -6 15 35 -4 42 -11 4 -15 0 -12
-16z"/>
<path d="M9310 4186 c0 -2 7 -9 15 -16 13 -11 14 -10 9 4 -5 14 -24 23 -24 12z"/>
<path d="M9187 3987 c-47 -42 -56 -57 -37 -57 6 0 10 7 10 15 0 8 7 15 15 15
8 0 15 5 15 10 0 6 6 10 13 10 16 0 49 38 38 44 -4 3 -29 -14 -54 -37z"/>
<path d="M9222 3718 c-8 -8 -9 -15 -1 -25 17 -20 29 -15 29 12 0 27 -9 32 -28
13z"/>
<path d="M9312 3710 c0 -14 2 -19 5 -12 2 6 2 18 0 25 -3 6 -5 1 -5 -13z"/>
<path d="M2100 3701 c-13 -26 -13 -31 5 -31 9 0 15 9 15 25 0 30 -6 32 -20 6z"/>
<path d="M2020 3684 c0 -8 5 -12 10 -9 6 4 8 11 5 16 -9 14 -15 11 -15 -7z"/>
<path d="M9150 3642 c0 -18 12 -42 21 -42 14 0 10 26 -6 40 -9 8 -15 8 -15 2z"/>
<path d="M9240 3621 c0 -12 5 -21 10 -21 6 0 10 6 10 14 0 8 -4 18 -10 21 -5
3 -10 -3 -10 -14z"/>
<path d="M2095 3600 c-3 -5 -2 -10 4 -10 5 0 13 5 16 10 3 6 2 10 -4 10 -5 0
-13 -4 -16 -10z"/>
<path d="M7661 1504 c0 -11 3 -14 6 -6 3 7 2 16 -1 19 -3 4 -6 -2 -5 -13z"/>
<path d="M3940 1131 l-25 -7 29 -6 c34 -7 59 0 50 13 -6 10 -18 10 -54 0z"/>
</g>
</svg>
